Vidaloka.ufo
<glyph name="exclam" format="1">
  <advance width="265"/>
  <unicode hex="0021"/>
  <outline>
    <contour>
      <point x="144" y="179" type="line"/>
      <point x="150" y="393"/>
      <point x="203" y="550"/>
      <point x="203" y="632" type="curve" smooth="yes"/>
      <point x="203" y="672"/>
      <point x="181" y="714"/>
      <point x="134" y="714" type="curve" smooth="yes"/>
      <point x="87" y="714"/>
      <point x="61" y="672"/>
      <point x="61" y="632" type="curve" smooth="yes"/>
      <point x="61" y="550"/>
      <point x="114" y="393"/>
      <point x="121" y="179" type="curve"/>
    </contour>
    <contour>
      <point x="65" y="17"/>
      <point x="91" y="-10"/>
      <point x="131" y="-10" type="curve" smooth="yes"/>
      <point x="172" y="-10"/>
      <point x="200" y="17"/>
      <point x="200" y="56" type="curve" smooth="yes"/>
      <point x="200" y="97"/>
      <point x="172" y="125"/>
      <point x="131" y="125" type="curve" smooth="yes"/>
      <point x="91" y="125"/>
      <point x="65" y="97"/>
      <point x="65" y="56" type="curve" smooth="yes"/>
    </contour>
  </outline>
</glyph>
<glyph name="dollar" format="1">
  <advance width="493"/>
  <unicode hex="0024"/>
  <outline>
    <contour>
      <point x="235" y="-119" type="line"/>
      <point x="263" y="-119" type="line"/>
      <point x="263" y="-16" type="line"/>
      <point x="404" y="-8"/>
      <point x="473" y="88"/>
      <point x="473" y="179" type="curve" smooth="yes"/>
      <point x="473" y="301"/>
      <point x="416" y="346"/>
      <point x="263" y="417" type="curve"/>
      <point x="263" y="687" type="line"/>
      <point x="333" y="682"/>
      <point x="365" y="651"/>
      <point x="373" y="642" type="curve"/>
      <point x="373" y="640" type="line"/>
      <point x="331" y="640"/>
      <point x="298" y="615"/>
      <point x="298" y="569" type="curve" smooth="yes"/>
      <point x="298" y="529"/>
      <point x="327" y="499"/>
      <point x="370" y="499" type="curve" smooth="yes"/>
      <point x="417" y="499"/>
      <point x="443" y="534"/>
      <point x="443" y="573" type="curve" smooth="yes"/>
      <point x="443" y="644"/>
      <point x="384" y="708"/>
      <point x="263" y="713" type="curve"/>
      <point x="263" y="807" type="line"/>
      <point x="235" y="807" type="line"/>
      <point x="235" y="713" type="line"/>
      <point x="102" y="709"/>
      <point x="26" y="623"/>
      <point x="26" y="518" type="curve" smooth="yes"/>
      <point x="26" y="434"/>
      <point x="57" y="356"/>
      <point x="186" y="301" type="curve"/>
      <point x="235" y="278" type="line"/>
      <point x="235" y="10" type="line"/>
      <point x="234" y="10" type="line" smooth="yes"/>
      <point x="139" y="10"/>
      <point x="96" y="42"/>
      <point x="87" y="52" type="curve"/>
      <point x="87" y="54" type="line"/>
      <point x="129" y="54"/>
      <point x="159" y="78"/>
      <point x="159" y="124" type="curve" smooth="yes"/>
      <point x="159" y="164"/>
      <point x="131" y="195"/>
      <point x="88" y="195" type="curve" smooth="yes"/>
      <point x="41" y="195"/>
      <point x="14" y="160"/>
      <point x="14" y="118" type="curve" smooth="yes"/>
      <point x="14" y="53"/>
      <point x="69" y="-15"/>
      <point x="235" y="-17" type="curve"/>
    </contour>
    <contour>
      <point x="101" y="639"/>
      <point x="147" y="684"/>
      <point x="235" y="687" type="curve"/>
      <point x="235" y="430" type="line"/>
      <point x="116" y="485"/>
      <point x="101" y="527"/>
      <point x="101" y="572" type="curve" smooth="yes"/>
    </contour>
    <contour>
      <point x="395" y="61"/>
      <point x="332" y="21"/>
      <point x="263" y="12" type="curve"/>
      <point x="263" y="264" type="line"/>
      <point x="371" y="208"/>
      <point x="395" y="173"/>
      <point x="395" y="124" type="curve" smooth="yes"/>
    </contour>
  </outline>
</glyph>
<glyph name="percent" format="1">
  <advance width="787"/>
  <unicode hex="0025"/>
  <outline>
    <contour>
      <point x="517" y="231"/>
      <point x="525" y="329"/>
      <point x="598" y="329" type="curve" smooth="yes"/>
      <point x="673" y="329"/>
      <point x="676" y="235"/>
      <point x="676" y="159" type="curve" smooth="yes"/>
      <point x="676" y="100"/>
      <point x="668" y="10"/>
      <point x="596" y="10" type="curve" smooth="yes"/>
      <point x="519" y="10"/>
      <point x="517" y="109"/>
      <point x="517" y="182" type="curve" smooth="yes"/>
    </contour>
    <contour>
      <point x="418" y="70"/>
      <point x="484" y="-17"/>
      <point x="600" y="-17" type="curve" smooth="yes"/>
      <point x="699" y="-17"/>
      <point x="776" y="73"/>
      <point x="776" y="175" type="curve" smooth="yes"/>
      <point x="776" y="261"/>
      <point x="720" y="355"/>
      <point x="601" y="355" type="curve" smooth="yes"/>
      <point x="483" y="355"/>
      <point x="418" y="259"/>
      <point x="418" y="166" type="curve" smooth="yes"/>
    </contour>
    <contour>
      <point x="111" y="590"/>
      <point x="120" y="687"/>
      <point x="192" y="687" type="curve" smooth="yes"/>
      <point x="268" y="687"/>
      <point x="271" y="593"/>
      <point x="271" y="518" type="curve" smooth="yes"/>
      <point x="271" y="458"/>
      <point x="263" y="368"/>
      <point x="190" y="368" type="curve" smooth="yes"/>
      <point x="114" y="368"/>
      <point x="111" y="467"/>
      <point x="111" y="541" type="curve" smooth="yes"/>
    </contour>
    <contour>
      <point x="13" y="428"/>
      <point x="79" y="341"/>
      <point x="194" y="341" type="curve" smooth="yes"/>
      <point x="293" y="341"/>
      <point x="371" y="431"/>
      <point x="371" y="533" type="curve" smooth="yes"/>
      <point x="371" y="620"/>
      <point x="314" y="714"/>
      <point x="195" y="714" type="curve" smooth="yes"/>
      <point x="78" y="714"/>
      <point x="13" y="617"/>
      <point x="13" y="524" type="curve" smooth="yes"/>
    </contour>
    <contour>
      <point x="215" y="0" type="line"/>
      <point x="596" y="714" type="line"/>
      <point x="565" y="714" type="line"/>
      <point x="185" y="0" type="line"/>
    </contour>
  </outline>
</glyph>
<glyph name="ampersand" format="1">
  <advance width="732"/>
  <unicode hex="0026"/>
  <outline>
    <contour>
      <point x="508" y="342" type="line" smooth="yes"/>
      <point x="313" y="342"/>
      <point x="304" y="230"/>
      <point x="304" y="193" type="curve" smooth="yes"/>
      <point x="304" y="122"/>
      <point x="346" y="101"/>
      <point x="380" y="101" type="curve" smooth="yes"/>
      <point x="410" y="101"/>
      <point x="436" y="122"/>
      <point x="436" y="154" type="curve" smooth="yes"/>
      <point x="436" y="188"/>
      <point x="410" y="205"/>
      <point x="383" y="205" type="curve" smooth="yes"/>
      <point x="371" y="205"/>
      <point x="350" y="198"/>
      <point x="340" y="182" type="curve"/>
      <point x="339" y="182" type="line"/>
      <point x="334" y="185"/>
      <point x="329" y="193"/>
      <point x="329" y="204" type="curve" smooth="yes"/>
      <point x="329" y="220"/>
      <point x="334" y="250"/>
      <point x="419" y="250" type="curve" smooth="yes"/>
      <point x="518" y="250" type="line" smooth="yes"/>
      <point x="524" y="250"/>
      <point x="531" y="250"/>
      <point x="538" y="250" type="curve"/>
      <point x="538" y="241"/>
      <point x="538" y="231"/>
      <point x="538" y="223" type="curve" smooth="yes"/>
      <point x="538" y="50"/>
      <point x="410" y="15"/>
      <point x="351" y="15" type="curve" smooth="yes"/>
      <point x="251" y="15"/>
      <point x="199" y="83"/>
      <point x="199" y="206" type="curve" smooth="yes"/>
      <point x="199" y="273"/>
      <point x="220" y="383"/>
      <point x="351" y="383" type="curve" smooth="yes"/>
      <point x="360" y="383" type="line"/>
      <point x="360" y="410" type="line"/>
      <point x="353" y="410" type="line" smooth="yes"/>
      <point x="274" y="410"/>
      <point x="225" y="460"/>
      <point x="225" y="555" type="curve" smooth="yes"/>
      <point x="225" y="634"/>
      <point x="258" y="686"/>
      <point x="334" y="686" type="curve" smooth="yes"/>
      <point x="374" y="686"/>
      <point x="409" y="670"/>
      <point x="421" y="646" type="curve"/>
      <point x="421" y="645" type="line"/>
      <point x="379" y="643"/>
      <point x="355" y="615"/>
      <point x="355" y="580" type="curve" smooth="yes"/>
      <point x="355" y="538"/>
      <point x="383" y="510"/>
      <point x="420" y="510" type="curve" smooth="yes"/>
      <point x="469" y="510"/>
      <point x="491" y="546"/>
      <point x="491" y="581" type="curve" smooth="yes"/>
      <point x="491" y="586" type="line" smooth="yes"/>
      <point x="491" y="604"/>
      <point x="473" y="714"/>
      <point x="313" y="714" type="curve" smooth="yes"/>
      <point x="152" y="714"/>
      <point x="102" y="612"/>
      <point x="102" y="543" type="curve" smooth="yes"/>
      <point x="102" y="432"/>
      <point x="205" y="400"/>
      <point x="286" y="398" type="curve"/>
      <point x="286" y="397" type="line"/>
      <point x="146" y="385"/>
      <point x="68" y="296"/>
      <point x="68" y="189" type="curve" smooth="yes"/>
      <point x="68" y="79"/>
      <point x="131" y="-17"/>
      <point x="326" y="-17" type="curve" smooth="yes"/>
      <point x="495" y="-17"/>
      <point x="565" y="87"/>
      <point x="565" y="221" type="curve" smooth="yes"/>
      <point x="565" y="231"/>
      <point x="564" y="241"/>
      <point x="563" y="252" type="curve"/>
      <point x="714" y="268"/>
      <point x="722" y="364"/>
      <point x="722" y="398" type="curve" smooth="yes"/>
      <point x="722" y="470"/>
      <point x="680" y="491"/>
      <point x="645" y="491" type="curve" smooth="yes"/>
      <point x="616" y="491"/>
      <point x="590" y="469"/>
      <point x="590" y="438" type="curve" smooth="yes"/>
      <point x="590" y="403"/>
      <point x="616" y="387"/>
      <point x="643" y="387" type="curve" smooth="yes"/>
      <point x="655" y="387"/>
      <point x="676" y="394"/>
      <point x="685" y="409" type="curve"/>
      <point x="687" y="409" type="line"/>
      <point x="691" y="407"/>
      <point x="697" y="398"/>
      <point x="697" y="388" type="curve" smooth="yes"/>
      <point x="697" y="371"/>
      <point x="691" y="342"/>
      <point x="606" y="342" type="curve" smooth="yes"/>
    </contour>
  </outline>
</glyph>
<glyph name="quotesingle" format="1">
  <advance width="176"/>
  <unicode hex="0027"/>
  <outline>
    <contour>
      <point x="100" y="462" type="line"/>
      <point x="115" y="551"/>
      <point x="134" y="615"/>
      <point x="134" y="649" type="curve" smooth="yes"/>
      <point x="134" y="665"/>
      <point x="134" y="714"/>
      <point x="89" y="714" type="curve" smooth="yes"/>
      <point x="44" y="714"/>
      <point x="42" y="665"/>
      <point x="42" y="649" type="curve" smooth="yes"/>
      <point x="42" y="615"/>
      <point x="61" y="551"/>
      <point x="76" y="462" type="curve"/>
    </contour>
  </outline>
</glyph>
<glyph name="asterisk" format="1">
  <advance width="456"/>
  <unicode hex="002A"/>
  <outline>
    <contour>
      <point x="239" y="587"/>
      <point x="283" y="613"/>
      <point x="283" y="657" type="curve" smooth="yes"/>
      <point x="283" y="683"/>
      <point x="268" y="714"/>
      <point x="228" y="714" type="curve" smooth="yes"/>
      <point x="188" y="714"/>
      <point x="171" y="683"/>
      <point x="171" y="657" type="curve" smooth="yes"/>
      <point x="171" y="613"/>
      <point x="215" y="586"/>
      <point x="215" y="522" type="curve"/>
      <point x="155" y="542"/>
      <point x="143" y="592"/>
      <point x="101" y="605" type="curve" smooth="yes"/>
      <point x="76" y="613"/>
      <point x="42" y="609"/>
      <point x="29" y="571" type="curve" smooth="yes"/>
      <point x="17" y="533"/>
      <point x="41" y="507"/>
      <point x="66" y="499" type="curve" smooth="yes"/>
      <point x="108" y="485"/>
      <point x="147" y="519"/>
      <point x="208" y="499" type="curve"/>
      <point x="170" y="448"/>
      <point x="119" y="452"/>
      <point x="94" y="416" type="curve"/>
      <point x="78" y="395"/>
      <point x="72" y="362"/>
      <point x="104" y="337" type="curve"/>
      <point x="136" y="314"/>
      <point x="168" y="329"/>
      <point x="184" y="350" type="curve" smooth="yes"/>
      <point x="210" y="386"/>
      <point x="190" y="434"/>
      <point x="228" y="485" type="curve"/>
      <point x="265" y="433"/>
      <point x="245" y="386"/>
      <point x="272" y="351" type="curve" smooth="yes"/>
      <point x="287" y="330"/>
      <point x="316" y="314"/>
      <point x="350" y="336" type="curve"/>
      <point x="382" y="360"/>
      <point x="377" y="395"/>
      <point x="362" y="417" type="curve" smooth="yes"/>
      <point x="336" y="452"/>
      <point x="284" y="448"/>
      <point x="248" y="500" type="curve"/>
      <point x="308" y="519"/>
      <point x="347" y="486"/>
      <point x="389" y="501" type="curve" smooth="yes"/>
      <point x="413" y="509"/>
      <point x="437" y="531"/>
      <point x="427" y="570" type="curve"/>
      <point x="414" y="608"/>
      <point x="379" y="614"/>
      <point x="354" y="607" type="curve"/>
      <point x="312" y="593"/>
      <point x="300" y="541"/>
      <point x="239" y="523" type="curve"/>
    </contour>
  </outline>
</glyph>
<glyph name="plus" format="1">
  <advance width="560"/>
  <unicode hex="002B"/>
  <outline>
    <contour>
      <point x="57" y="343" type="line"/>
      <point x="57" y="289" type="line"/>
      <point x="253" y="289" type="line"/>
      <point x="253" y="95" type="line"/>
      <point x="307" y="95" type="line"/>
      <point x="307" y="289" type="line"/>
      <point x="502" y="289" type="line"/>
      <point x="502" y="343" type="line"/>
      <point x="307" y="343" type="line"/>
      <point x="307" y="537" type="line"/>
      <point x="253" y="537" type="line"/>
      <point x="253" y="343" type="line"/>
    </contour>
  </outline>
</glyph>
<glyph name="hyphen" format="1">
  <advance width="364"/>
  <unicode hex="002D"/>
  <outline>
    <contour>
      <point x="57" y="343" type="line"/>
      <point x="57" y="289" type="line"/>
      <point x="307" y="289" type="line"/>
      <point x="307" y="343" type="line"/>
    </contour>
  </outline>
</glyph>
<glyph name="period" format="1">
  <advance width="227"/>
  <unicode hex="002E"/>
  <outline>
    <contour>
      <point x="46" y="9"/>
      <point x="74" y="-17"/>
      <point x="113" y="-17" type="curve" smooth="yes"/>
      <point x="154" y="-17"/>
      <point x="181" y="9"/>
      <point x="181" y="49" type="curve" smooth="yes"/>
      <point x="181" y="90"/>
      <point x="154" y="117"/>
      <point x="113" y="117" type="curve" smooth="yes"/>
      <point x="74" y="117"/>
      <point x="46" y="90"/>
      <point x="46" y="49" type="curve" smooth="yes"/>
    </contour>
  </outline>
</glyph>
<glyph name="zero" format="1">
  <advance width="625"/>
  <unicode hex="0030"/>
  <outline>
    <contour>
      <point x="180" y="604"/>
      <point x="246" y="687"/>
      <point x="314" y="687" type="curve" smooth="yes"/>
      <point x="393" y="687"/>
      <point x="444" y="596"/>
      <point x="444" y="356" type="curve" smooth="yes"/>
      <point x="444" y="135"/>
      <point x="397" y="10"/>
      <point x="311" y="10" type="curve" smooth="yes"/>
      <point x="222" y="10"/>
      <point x="180" y="152"/>
      <point x="180" y="355" type="curve" smooth="yes"/>
    </contour>
    <contour>
      <point x="47" y="124"/>
      <point x="130" y="-17"/>
      <point x="314" y="-17" type="curve" smooth="yes"/>
      <point x="511" y="-17"/>
      <point x="577" y="175"/>
      <point x="577" y="364" type="curve" smooth="yes"/>
      <point x="577" y="574"/>
      <point x="485" y="714"/>
      <point x="311" y="714" type="curve" smooth="yes"/>
      <point x="133" y="714"/>
      <point x="47" y="539"/>
      <point x="47" y="338" type="curve" smooth="yes"/>
    </contour>
  </outline>
</glyph>
<glyph name="two" format="1">
  <advance width="523"/>
  <unicode hex="0032"/>
  <outline>
    <contour>
      <point x="45" y="0" type="line"/>
      <point x="471" y="0" type="line"/>
      <point x="476" y="181" type="line"/>
      <point x="449" y="181" type="line"/>
      <point x="442" y="103"/>
      <point x="410" y="93"/>
      <point x="304" y="92" type="curve" smooth="yes"/>
      <point x="107" y="89" type="line"/>
      <point x="156" y="131"/>
      <point x="212" y="189"/>
      <point x="294" y="268" type="curve" smooth="yes"/>
      <point x="420" y="388"/>
      <point x="462" y="456"/>
      <point x="462" y="546" type="curve" smooth="yes"/>
      <point x="462" y="649"/>
      <point x="378" y="714"/>
      <point x="253" y="714" type="curve" smooth="yes"/>
      <point x="88" y="714"/>
      <point x="39" y="606"/>
      <point x="39" y="542" type="curve" smooth="yes"/>
      <point x="39" y="503"/>
      <point x="64" y="469"/>
      <point x="112" y="469" type="curve" smooth="yes"/>
      <point x="155" y="469"/>
      <point x="183" y="499"/>
      <point x="183" y="539" type="curve" smooth="yes"/>
      <point x="183" y="581"/>
      <point x="154" y="610"/>
      <point x="112" y="610" type="curve" smooth="yes"/>
      <point x="108" y="610"/>
      <point x="104" y="610"/>
      <point x="100" y="610" type="curve"/>
      <point x="100" y="612" type="line"/>
      <point x="108" y="638"/>
      <point x="148" y="685"/>
      <point x="218" y="685" type="curve" smooth="yes"/>
      <point x="283" y="685"/>
      <point x="329" y="643"/>
      <point x="329" y="544" type="curve" smooth="yes"/>
      <point x="329" y="479"/>
      <point x="323" y="395"/>
      <point x="245" y="286" type="curve" smooth="yes"/>
      <point x="195" y="217"/>
      <point x="113" y="130"/>
      <point x="45" y="70" type="curve"/>
    </contour>
  </outline>
</glyph>
<glyph name="three" format="1">
  <advance width="537"/>
  <unicode hex="0033"/>
  <outline>
    <contour>
      <point x="177" y="366" type="line"/>
      <point x="210" y="366" type="line" smooth="yes"/>
      <point x="357" y="366"/>
      <point x="361" y="242"/>
      <point x="361" y="172" type="curve" smooth="yes"/>
      <point x="361" y="68"/>
      <point x="308" y="11"/>
      <point x="227" y="11" type="curve" smooth="yes"/>
      <point x="145" y="11"/>
      <point x="124" y="41"/>
      <point x="116" y="50" type="curve"/>
      <point x="116" y="52" type="line"/>
      <point x="158" y="52"/>
      <point x="188" y="74"/>
      <point x="188" y="119" type="curve" smooth="yes"/>
      <point x="188" y="159"/>
      <point x="161" y="188"/>
      <point x="118" y="188" type="curve" smooth="yes"/>
      <point x="71" y="188"/>
      <point x="44" y="151"/>
      <point x="44" y="113" type="curve" smooth="yes"/>
      <point x="44" y="40"/>
      <point x="103" y="-17"/>
      <point x="247" y="-17" type="curve" smooth="yes"/>
      <point x="419" y="-17"/>
      <point x="493" y="79"/>
      <point x="493" y="173" type="curve" smooth="yes"/>
      <point x="493" y="283"/>
      <point x="438" y="368"/>
      <point x="275" y="384" type="curve"/>
      <point x="275" y="385" type="line"/>
      <point x="398" y="399"/>
      <point x="453" y="458"/>
      <point x="453" y="540" type="curve" smooth="yes"/>
      <point x="453" y="651"/>
      <point x="371" y="714"/>
      <point x="245" y="714" type="curve" smooth="yes"/>
      <point x="83" y="714"/>
      <point x="44" y="599"/>
      <point x="44" y="559" type="curve" smooth="yes"/>
      <point x="44" y="517"/>
      <point x="67" y="487"/>
      <point x="111" y="487" type="curve" smooth="yes"/>
      <point x="151" y="487"/>
      <point x="176" y="514"/>
      <point x="176" y="552" type="curve" smooth="yes"/>
      <point x="176" y="594"/>
      <point x="146" y="623"/>
      <point x="101" y="616" type="curve"/>
      <point x="101" y="618" type="line"/>
      <point x="109" y="640"/>
      <point x="151" y="685"/>
      <point x="214" y="685" type="curve" smooth="yes"/>
      <point x="294" y="685"/>
      <point x="329" y="625"/>
      <point x="329" y="540" type="curve" smooth="yes"/>
      <point x="329" y="463"/>
      <point x="300" y="393"/>
      <point x="208" y="393" type="curve" smooth="yes"/>
      <point x="177" y="393" type="line"/>
    </contour>
  </outline>
</glyph>
<glyph name="four" format="1">
  <advance width="543"/>
  <unicode hex="0034"/>
  <outline>
    <contour>
      <point x="404" y="161" type="line"/>
      <point x="529" y="161" type="line"/>
      <point x="529" y="189" type="line"/>
      <point x="404" y="188" type="line"/>
      <point x="404" y="714" type="line"/>
      <point x="377" y="714" type="line"/>
      <point x="5" y="184" type="line"/>
      <point x="5" y="161" type="line"/>
      <point x="284" y="161" type="line"/>
      <point x="284" y="27" type="line"/>
      <point x="209" y="22" type="line"/>
      <point x="209" y="0" type="line"/>
      <point x="479" y="0" type="line"/>
      <point x="479" y="22" type="line"/>
      <point x="404" y="27" type="line"/>
    </contour>
    <contour>
      <point x="284" y="533" type="line"/>
      <point x="284" y="187" type="line"/>
      <point x="41" y="184" type="line"/>
      <point x="41" y="186" type="line"/>
      <point x="282" y="533" type="line"/>
    </contour>
  </outline>
</glyph>
<glyph name="colon" format="1">
  <advance width="249"/>
  <unicode hex="003A"/>
  <outline>
    <contour>
      <point x="57" y="9"/>
      <point x="85" y="-17"/>
      <point x="125" y="-17" type="curve" smooth="yes"/>
      <point x="166" y="-17"/>
      <point x="192" y="9"/>
      <point x="192" y="49" type="curve" smooth="yes"/>
      <point x="192" y="90"/>
      <point x="166" y="117"/>
      <point x="125" y="117" type="curve" smooth="yes"/>
      <point x="85" y="117"/>
      <point x="57" y="90"/>
      <point x="57" y="49" type="curve" smooth="yes"/>
    </contour>
    <contour>
      <point x="57" y="397"/>
      <point x="85" y="371"/>
      <point x="125" y="371" type="curve" smooth="yes"/>
      <point x="166" y="371"/>
      <point x="192" y="397"/>
      <point x="192" y="437" type="curve" smooth="yes"/>
      <point x="192" y="478"/>
      <point x="166" y="505"/>
      <point x="125" y="505" type="curve" smooth="yes"/>
      <point x="85" y="505"/>
      <point x="57" y="478"/>
      <point x="57" y="437" type="curve" smooth="yes"/>
    </contour>
  </outline>
</glyph>
<glyph name="less" format="1">
  <advance width="497"/>
  <unicode hex="003C"/>
  <outline>
    <contour>
      <point x="8" y="298" type="line"/>
      <point x="453" y="85" type="line"/>
      <point x="453" y="145" type="line"/>
      <point x="88" y="314" type="line"/>
      <point x="88" y="315" type="line"/>
      <point x="453" y="484" type="line"/>
      <point x="453" y="544" type="line"/>
      <point x="8" y="327" type="line"/>
    </contour>
  </outline>
</glyph>
<glyph name="equal" format="1">
  <advance width="560"/>
  <unicode hex="003D"/>
  <outline>
    <contour>
      <point x="57" y="443" type="line"/>
      <point x="57" y="390" type="line"/>
      <point x="502" y="390" type="line"/>
      <point x="502" y="443" type="line"/>
    </contour>
    <contour>
      <point x="57" y="248" type="line"/>
      <point x="57" y="194" type="line"/>
      <point x="502" y="194" type="line"/>
      <point x="502" y="248" type="line"/>
    </contour>
  </outline>
</glyph>
<glyph name="greater" format="1">
  <advance width="497"/>
  <unicode hex="003E"/>
  <outline>
    <contour>
      <point x="489" y="331" type="line"/>
      <point x="44" y="544" type="line"/>
      <point x="44" y="484" type="line"/>
      <point x="409" y="315" type="line"/>
      <point x="409" y="314" type="line"/>
      <point x="44" y="145" type="line"/>
      <point x="44" y="85" type="line"/>
      <point x="489" y="302" type="line"/>
    </contour>
  </outline>
</glyph>
<glyph name="at" format="1">
  <advance width="736"/>
  <unicode hex="0040"/>
  <outline>
    <contour>
      <point x="465" y="488" type="line"/>
      <point x="462" y="464" type="line"/>
      <point x="443" y="480"/>
      <point x="414" y="497"/>
      <point x="371" y="497" type="curve" smooth="yes"/>
      <point x="234" y="497"/>
      <point x="194" y="349"/>
      <point x="194" y="238" type="curve" smooth="yes"/>
      <point x="194" y="134"/>
      <point x="249" y="77"/>
      <point x="328" y="77" type="curve" smooth="yes"/>
      <point x="356" y="77"/>
      <point x="403" y="88"/>
      <point x="435" y="129" type="curve"/>
      <point x="447" y="88"/>
      <point x="486" y="72"/>
      <point x="532" y="72" type="curve" smooth="yes"/>
      <point x="613" y="72"/>
      <point x="709" y="148"/>
      <point x="709" y="317" type="curve" smooth="yes"/>
      <point x="709" y="503"/>
      <point x="578" y="642"/>
      <point x="393" y="642" type="curve" smooth="yes"/>
      <point x="170" y="642"/>
      <point x="38" y="474"/>
      <point x="38" y="267" type="curve" smooth="yes"/>
      <point x="38" y="58"/>
      <point x="162" y="-95"/>
      <point x="387" y="-95" type="curve" smooth="yes"/>
      <point x="473" y="-95"/>
      <point x="569" y="-67"/>
      <point x="646" y="16" type="curve"/>
      <point x="628" y="32" type="line"/>
      <point x="561" y="-42"/>
      <point x="477" y="-68"/>
      <point x="385" y="-68" type="curve" smooth="yes"/>
      <point x="166" y="-68"/>
      <point x="70" y="95"/>
      <point x="70" y="275" type="curve" smooth="yes"/>
      <point x="70" y="452"/>
      <point x="194" y="614"/>
      <point x="378" y="614" type="curve" smooth="yes"/>
      <point x="565" y="614"/>
      <point x="676" y="487"/>
      <point x="676" y="309" type="curve" smooth="yes"/>
      <point x="676" y="193"/>
      <point x="611" y="98"/>
      <point x="544" y="98" type="curve" smooth="yes"/>
      <point x="517" y="98"/>
      <point x="501" y="110"/>
      <point x="501" y="153" type="curve" smooth="yes"/>
      <point x="501" y="207"/>
      <point x="524" y="368"/>
      <point x="537" y="481" type="curve"/>
    </contour>
    <contour>
      <point x="417" y="469"/>
      <point x="442" y="453"/>
      <point x="458" y="435" type="curve"/>
      <point x="447" y="332"/>
      <point x="431" y="204"/>
      <point x="431" y="158" type="curve"/>
      <point x="407" y="129"/>
      <point x="379" y="114"/>
      <point x="352" y="114" type="curve" smooth="yes"/>
      <point x="297" y="114"/>
      <point x="269" y="164"/>
      <point x="269" y="233" type="curve" smooth="yes"/>
      <point x="269" y="347"/>
      <point x="296" y="469"/>
      <point x="380" y="469" type="curve" smooth="yes"/>
    </contour>
    <contour>
      <point x="478" y="402" type="line"/>
      <point x="478" y="402"/>
      <point x="478" y="403"/>
      <point x="478" y="403" type="curve" smooth="yes"/>
      <point x="478" y="403"/>
      <point x="478" y="403"/>
      <point x="478" y="403" type="curve"/>
    </contour>
  </outline>
</glyph>
<glyph name="A" format="1">
  <advance width="604"/>
  <unicode hex="0041"/>
  <outline>
    <contour>
      <point x="417" y="27" type="line"/>
      <point x="351" y="22" type="line"/>
      <point x="351" y="0" type="line"/>
      <point x="612" y="0" type="line"/>
      <point x="612" y="22" type="line"/>
      <point x="548" y="27" type="line"/>
      <point x="309" y="717" type="line"/>
      <point x="287" y="717" type="line"/>
      <point x="56" y="27" type="line"/>
      <point x="-3" y="22" type="line"/>
      <point x="-3" y="0" type="line"/>
      <point x="150" y="0" type="line"/>
      <point x="150" y="22" type="line"/>
      <point x="84" y="27" type="line"/>
      <point x="141" y="202" type="line"/>
      <point x="359" y="202" type="line"/>
    </contour>
    <contour>
      <point x="249" y="535" type="line"/>
      <point x="251" y="535" type="line"/>
      <point x="349" y="235" type="line"/>
      <point x="149" y="231" type="line"/>
    </contour>
    <contour>
      <point x="583" y="5" type="move" name="ogonek"/>
    </contour>
    <contour>
      <point x="302" y="0" type="move" name="bottom"/>
    </contour>
    <contour>
      <point x="302" y="697" type="move" name="top"/>
    </contour>
  </outline>
</glyph>
<glyph name="F" format="1">
  <advance width="527"/>
  <unicode hex="0046"/>
  <outline>
    <contour>
      <point x="236" y="665" type="line"/>
      <point x="261" y="669"/>
      <point x="290" y="670"/>
      <point x="320" y="670" type="curve" smooth="yes"/>
      <point x="436" y="670"/>
      <point x="466" y="599"/>
      <point x="475" y="498" type="curve"/>
      <point x="502" y="498" type="line"/>
      <point x="497" y="697" type="line"/>
      <point x="36" y="697" type="line"/>
      <point x="36" y="675" type="line"/>
      <point x="111" y="670" type="line"/>
      <point x="111" y="27" type="line"/>
      <point x="36" y="22" type="line"/>
      <point x="36" y="0" type="line"/>
      <point x="331" y="0" type="line"/>
      <point x="331" y="22" type="line"/>
      <point x="236" y="27" type="line"/>
      <point x="236" y="337" type="line"/>
      <point x="251" y="337"/>
      <point x="269" y="337"/>
      <point x="274" y="337" type="curve" smooth="yes"/>
      <point x="341" y="337"/>
      <point x="370" y="310"/>
      <point x="370" y="219" type="curve"/>
      <point x="396" y="219" type="line"/>
      <point x="396" y="481" type="line"/>
      <point x="370" y="481" type="line"/>
      <point x="370" y="376"/>
      <point x="334" y="364"/>
      <point x="250" y="364" type="curve" smooth="yes"/>
      <point x="246" y="364"/>
      <point x="241" y="364"/>
      <point x="236" y="364" type="curve"/>
    </contour>
  </outline>
</glyph>
<glyph name="G" format="1">
  <advance width="687"/>
  <unicode hex="0047"/>
  <outline>
    <contour>
      <point x="595" y="292" type="line"/>
      <point x="667" y="297" type="line"/>
      <point x="667" y="319" type="line"/>
      <point x="411" y="319" type="line"/>
      <point x="411" y="297" type="line"/>
      <point x="483" y="292" type="line"/>
      <point x="483" y="26" type="line"/>
      <point x="456" y="18"/>
      <point x="428" y="11"/>
      <point x="392" y="11" type="curve" smooth="yes"/>
      <point x="210" y="11"/>
      <point x="178" y="204"/>
      <point x="178" y="350" type="curve" smooth="yes"/>
      <point x="178" y="547"/>
      <point x="259" y="685"/>
      <point x="399" y="685" type="curve" smooth="yes"/>
      <point x="473" y="685"/>
      <point x="519" y="652"/>
      <point x="527" y="642" type="curve"/>
      <point x="527" y="640" type="line"/>
      <point x="485" y="640"/>
      <point x="453" y="615"/>
      <point x="453" y="569" type="curve" smooth="yes"/>
      <point x="453" y="529"/>
      <point x="481" y="499"/>
      <point x="524" y="499" type="curve" smooth="yes"/>
      <point x="572" y="499"/>
      <point x="598" y="534"/>
      <point x="598" y="573" type="curve" smooth="yes"/>
      <point x="598" y="647"/>
      <point x="505" y="714"/>
      <point x="370" y="714" type="curve" smooth="yes"/>
      <point x="144" y="714"/>
      <point x="48" y="500"/>
      <point x="48" y="334" type="curve" smooth="yes"/>
      <point x="48" y="167"/>
      <point x="100" y="-17"/>
      <point x="365" y="-17" type="curve" smooth="yes"/>
      <point x="448" y="-17"/>
      <point x="539" y="0"/>
      <point x="595" y="33" type="curve"/>
    </contour>
    <contour>
      <point x="366" y="697" type="move" name="top"/>
    </contour>
    <contour>
      <point x="344" y="0" type="move" name="bottom"/>
    </contour>
  </outline>
</glyph>
<glyph name="I" format="1">
  <advance width="347"/>
  <unicode hex="0049"/>
  <outline>
    <contour>
      <point x="311" y="697" type="line"/>
      <point x="36" y="697" type="line"/>
      <point x="36" y="675" type="line"/>
      <point x="111" y="670" type="line"/>
      <point x="111" y="27" type="line"/>
      <point x="36" y="22" type="line"/>
      <point x="36" y="0" type="line"/>
      <point x="311" y="0" type="line"/>
      <point x="311" y="22" type="line"/>
      <point x="236" y="27" type="line"/>
      <point x="236" y="670" type="line"/>
      <point x="311" y="675" type="line"/>
    </contour>
  </outline>
</glyph>
<glyph name="L" format="1">
  <advance width="569"/>
  <unicode hex="004C"/>
  <outline>
    <contour>
      <point x="36" y="697" type="line"/>
      <point x="36" y="675" type="line"/>
      <point x="111" y="670" type="line"/>
      <point x="111" y="27" type="line"/>
      <point x="36" y="22" type="line"/>
      <point x="36" y="0" type="line"/>
      <point x="547" y="0" type="line"/>
      <point x="547" y="199" type="line"/>
      <point x="530" y="199" type="line"/>
      <point x="500" y="62"/>
      <point x="485" y="26"/>
      <point x="345" y="26" type="curve" smooth="yes"/>
      <point x="308" y="26"/>
      <point x="272" y="29"/>
      <point x="236" y="32" type="curve"/>
      <point x="236" y="670" type="line"/>
      <point x="311" y="675" type="line"/>
      <point x="311" y="697" type="line"/>
    </contour>
  </outline>
</glyph>
<glyph name="N" format="1">
  <advance width="690"/>
  <unicode hex="004E"/>
  <outline>
    <contour>
      <point x="138" y="500" type="line"/>
      <point x="139" y="500" type="line"/>
      <point x="558" y="-10" type="line"/>
      <point x="587" y="-10" type="line"/>
      <point x="582" y="670" type="line"/>
      <point x="657" y="675" type="line"/>
      <point x="657" y="697" type="line"/>
      <point x="477" y="697" type="line"/>
      <point x="477" y="675" type="line"/>
      <point x="551" y="670" type="line"/>
      <point x="558" y="189" type="line"/>
      <point x="557" y="189" type="line"/>
      <point x="138" y="697" type="line"/>
      <point x="34" y="697" type="line"/>
      <point x="34" y="675" type="line"/>
      <point x="108" y="670" type="line"/>
      <point x="114" y="27" type="line"/>
      <point x="39" y="22" type="line"/>
      <point x="39" y="0" type="line"/>
      <point x="219" y="0" type="line"/>
      <point x="219" y="22" type="line"/>
      <point x="145" y="27" type="line"/>
    </contour>
    <contour>
      <point x="345" y="697" type="move" name="top"/>
    </contour>
    <contour>
      <point x="345" y="0" type="move" name="bottom"/>
    </contour>
  </outline>
</glyph>
<glyph name="O" format="1">
  <advance width="704"/>
  <unicode hex="004F"/>
  <outline>
    <contour>
      <point x="178" y="590"/>
      <point x="261" y="687"/>
      <point x="354" y="687" type="curve" smooth="yes"/>
      <point x="458" y="687"/>
      <point x="526" y="583"/>
      <point x="526" y="358" type="curve" smooth="yes"/>
      <point x="526" y="151"/>
      <point x="462" y="10"/>
      <point x="351" y="10" type="curve" smooth="yes"/>
      <point x="237" y="10"/>
      <point x="178" y="168"/>
      <point x="178" y="357" type="curve" smooth="yes"/>
    </contour>
    <contour>
      <point x="47" y="131"/>
      <point x="160" y="-17"/>
      <point x="354" y="-17" type="curve" smooth="yes"/>
      <point x="561" y="-17"/>
      <point x="657" y="174"/>
      <point x="657" y="362" type="curve" smooth="yes"/>
      <point x="657" y="572"/>
      <point x="535" y="714"/>
      <point x="351" y="714" type="curve" smooth="yes"/>
      <point x="163" y="714"/>
      <point x="47" y="546"/>
      <point x="47" y="346" type="curve" smooth="yes"/>
    </contour>
  </outline>
</glyph>
<glyph name="Q" format="1">
  <advance width="704"/>
  <unicode hex="0051"/>
  <outline>
    <contour>
      <point x="207" y="-104" type="line"/>
      <point x="226" y="-95"/>
      <point x="243" y="-92"/>
      <point x="260" y="-92" type="curve" smooth="yes"/>
      <point x="297" y="-92"/>
      <point x="344" y="-131"/>
      <point x="411" y="-170" type="curve" smooth="yes"/>
      <point x="492" y="-219"/>
      <point x="516" y="-220"/>
      <point x="550" y="-220" type="curve" smooth="yes"/>
      <point x="636" y="-220"/>
      <point x="680" y="-147"/>
      <point x="680" y="-98" type="curve" smooth="yes"/>
      <point x="680" y="-56"/>
      <point x="659" y="-19"/>
      <point x="618" y="-19" type="curve" smooth="yes"/>
      <point x="589" y="-19"/>
      <point x="565" y="-39"/>
      <point x="565" y="-71" type="curve" smooth="yes"/>
      <point x="565" y="-99"/>
      <point x="585" y="-122"/>
      <point x="617" y="-122" type="curve" smooth="yes"/>
      <point x="632" y="-122"/>
      <point x="644" y="-114"/>
      <point x="649" y="-104" type="curve"/>
      <point x="651" y="-104" type="line"/>
      <point x="651" y="-106"/>
      <point x="651" y="-108"/>
      <point x="651" y="-110" type="curve" smooth="yes"/>
      <point x="651" y="-133"/>
      <point x="638" y="-159"/>
      <point x="603" y="-159" type="curve" smooth="yes"/>
      <point x="586" y="-159"/>
      <point x="567" y="-153"/>
      <point x="544" y="-140" type="curve" smooth="yes"/>
      <point x="450" y="-87"/>
      <point x="408" y="-36"/>
      <point x="320" y="-36" type="curve" smooth="yes"/>
      <point x="281" y="-36"/>
      <point x="238" y="-51"/>
      <point x="197" y="-84" type="curve"/>
    </contour>
    <contour>
      <point x="178" y="590"/>
      <point x="261" y="687"/>
      <point x="354" y="687" type="curve" smooth="yes"/>
      <point x="458" y="687"/>
      <point x="526" y="583"/>
      <point x="526" y="358" type="curve" smooth="yes"/>
      <point x="526" y="151"/>
      <point x="462" y="10"/>
      <point x="351" y="10" type="curve" smooth="yes"/>
      <point x="237" y="10"/>
      <point x="178" y="168"/>
      <point x="178" y="357" type="curve" smooth="yes"/>
    </contour>
    <contour>
      <point x="47" y="131"/>
      <point x="160" y="-17"/>
      <point x="354" y="-17" type="curve" smooth="yes"/>
      <point x="561" y="-17"/>
      <point x="657" y="174"/>
      <point x="657" y="362" type="curve" smooth="yes"/>
      <point x="657" y="572"/>
      <point x="535" y="714"/>
      <point x="351" y="714" type="curve" smooth="yes"/>
      <point x="163" y="714"/>
      <point x="47" y="546"/>
      <point x="47" y="346" type="curve" smooth="yes"/>
    </contour>
  </outline>
</glyph>
<glyph name="R" format="1">
  <advance width="629"/>
  <unicode hex="0052"/>
  <outline>
    <contour>
      <point x="236" y="666" type="line"/>
      <point x="257" y="668"/>
      <point x="272" y="669"/>
      <point x="283" y="669" type="curve" smooth="yes"/>
      <point x="355" y="669"/>
      <point x="414" y="638"/>
      <point x="414" y="523" type="curve" smooth="yes"/>
      <point x="414" y="417"/>
      <point x="377" y="354"/>
      <point x="256" y="354" type="curve" smooth="yes"/>
      <point x="247" y="354"/>
      <point x="241" y="354"/>
      <point x="236" y="355" type="curve"/>
    </contour>
    <contour>
      <point x="321" y="328"/>
      <point x="353" y="249"/>
      <point x="388" y="162" type="curve" smooth="yes"/>
      <point x="446" y="17"/>
      <point x="475" y="0"/>
      <point x="566" y="0" type="curve" smooth="yes"/>
      <point x="647" y="0" type="line"/>
      <point x="647" y="27" type="line"/>
      <point x="623" y="27"/>
      <point x="592" y="32"/>
      <point x="559" y="92" type="curve" smooth="yes"/>
      <point x="524" y="152"/>
      <point x="519" y="176"/>
      <point x="489" y="236" type="curve" smooth="yes"/>
      <point x="459" y="293"/>
      <point x="421" y="332"/>
      <point x="336" y="333" type="curve"/>
      <point x="336" y="333" type="line"/>
      <point x="455" y="351"/>
      <point x="544" y="407"/>
      <point x="544" y="524" type="curve" smooth="yes"/>
      <point x="544" y="651"/>
      <point x="436" y="697"/>
      <point x="296" y="697" type="curve" smooth="yes"/>
      <point x="36" y="697" type="line"/>
      <point x="36" y="675" type="line"/>
      <point x="111" y="670" type="line"/>
      <point x="111" y="27" type="line"/>
      <point x="36" y="22" type="line"/>
      <point x="36" y="0" type="line"/>
      <point x="311" y="0" type="line"/>
      <point x="311" y="22" type="line"/>
      <point x="236" y="27" type="line"/>
      <point x="236" y="327" type="line"/>
      <point x="247" y="328"/>
      <point x="253" y="328"/>
      <point x="269" y="328" type="curve" smooth="yes"/>
    </contour>
  </outline>
</glyph>
<glyph name="T" format="1">
  <advance width="602"/>
  <unicode hex="0054"/>
  <outline>
    <contour>
      <point x="567" y="697" type="line"/>
      <point x="34" y="697" type="line"/>
      <point x="29" y="458" type="line"/>
      <point x="56" y="458" type="line"/>
      <point x="85" y="611"/>
      <point x="102" y="670"/>
      <point x="218" y="670" type="curve" smooth="yes"/>
      <point x="223" y="670"/>
      <point x="228" y="669"/>
      <point x="237" y="669" type="curve"/>
      <point x="240" y="27" type="line"/>
      <point x="165" y="22" type="line"/>
      <point x="165" y="0" type="line"/>
      <point x="440" y="0" type="line"/>
      <point x="440" y="22" type="line"/>
      <point x="365" y="27" type="line"/>
      <point x="365" y="670" type="line"/>
      <point x="374" y="670"/>
      <point x="379" y="670"/>
      <point x="384" y="670" type="curve" smooth="yes"/>
      <point x="499" y="670"/>
      <point x="517" y="612"/>
      <point x="545" y="458" type="curve"/>
      <point x="572" y="458" type="line"/>
    </contour>
  </outline>
</glyph>
<glyph name="V" format="1">
  <advance width="642"/>
  <unicode hex="0056"/>
  <outline>
    <contour>
      <point x="186" y="670" type="line"/>
      <point x="252" y="675" type="line"/>
      <point x="252" y="697" type="line"/>
      <point x="-19" y="697" type="line"/>
      <point x="-19" y="675" type="line"/>
      <point x="55" y="670" type="line"/>
      <point x="329" y="-10" type="line"/>
      <point x="351" y="-10" type="line"/>
      <point x="583" y="670" type="line"/>
      <point x="642" y="675" type="line"/>
      <point x="642" y="697" type="line"/>
      <point x="486" y="697" type="line"/>
      <point x="486" y="675" type="line"/>
      <point x="552" y="670" type="line"/>
      <point x="382" y="175" type="line"/>
      <point x="380" y="175" type="line"/>
    </contour>
  </outline>
</glyph>
<glyph name="W" format="1">
  <advance width="900"/>
  <unicode hex="0057"/>
  <outline>
    <contour>
      <point x="496" y="707" type="line"/>
      <point x="474" y="707" type="line"/>
      <point x="323" y="182" type="line"/>
      <point x="321" y="182" type="line"/>
      <point x="191" y="670" type="line"/>
      <point x="258" y="675" type="line"/>
      <point x="258" y="697" type="line"/>
      <point x="-13" y="697" type="line"/>
      <point x="-13" y="675" type="line"/>
      <point x="61" y="670" type="line"/>
      <point x="271" y="-10" type="line"/>
      <point x="293" y="-10" type="line"/>
      <point x="442" y="500" type="line"/>
      <point x="443" y="500" type="line"/>
      <point x="623" y="-10" type="line"/>
      <point x="645" y="-10" type="line"/>
      <point x="843" y="670" type="line"/>
      <point x="902" y="675" type="line"/>
      <point x="902" y="697" type="line"/>
      <point x="748" y="697" type="line"/>
      <point x="748" y="675" type="line"/>
      <point x="813" y="670" type="line"/>
      <point x="674" y="184" type="line"/>
      <point x="672" y="184" type="line"/>
    </contour>
  </outline>
</glyph>
<glyph name="Y" format="1">
  <advance width="595"/>
  <unicode hex="0059"/>
  <outline>
    <contour>
      <point x="48" y="670" type="line"/>
      <point x="253" y="314" type="line"/>
      <point x="253" y="27" type="line"/>
      <point x="179" y="22" type="line"/>
      <point x="179" y="0" type="line"/>
      <point x="454" y="0" type="line"/>
      <point x="454" y="22" type="line"/>
      <point x="378" y="27" type="line"/>
      <point x="378" y="343" type="line"/>
      <point x="531" y="670" type="line"/>
      <point x="591" y="675" type="line"/>
      <point x="591" y="697" type="line"/>
      <point x="429" y="697" type="line"/>
      <point x="429" y="675" type="line"/>
      <point x="498" y="670" type="line"/>
      <point x="360" y="374" type="line"/>
      <point x="357" y="374" type="line"/>
      <point x="193" y="670" type="line"/>
      <point x="269" y="675" type="line"/>
      <point x="269" y="697" type="line"/>
      <point x="-18" y="697" type="line"/>
      <point x="-18" y="675" type="line"/>
    </contour>
  </outline>
</glyph>
<glyph name="Z" format="1">
  <advance width="580"/>
  <unicode hex="005A"/>
  <outline>
    <contour>
      <point x="521" y="0" type="line"/>
      <point x="537" y="259" type="line"/>
      <point x="515" y="259" type="line"/>
      <point x="500" y="139"/>
      <point x="466" y="21"/>
      <point x="363" y="22" type="curve" smooth="yes"/>
      <point x="177" y="25" type="line"/>
      <point x="515" y="671" type="line"/>
      <point x="515" y="697" type="line"/>
      <point x="62" y="697" type="line"/>
      <point x="46" y="468" type="line"/>
      <point x="68" y="468" type="line"/>
      <point x="88" y="601"/>
      <point x="132" y="668"/>
      <point x="238" y="670" type="curve" smooth="yes"/>
      <point x="403" y="673" type="line"/>
      <point x="48" y="27" type="line"/>
      <point x="48" y="0" type="line"/>
    </contour>
    <contour>
      <point x="300" y="697" type="move" name="top"/>
    </contour>
    <contour>
      <point x="290" y="0" type="move" name="bottom"/>
    </contour>
  </outline>
</glyph>
<glyph name="bracketleft" format="1">
  <advance width="267"/>
  <unicode hex="005B"/>
  <outline>
    <contour>
      <point x="74" y="-242" type="line"/>
      <point x="249" y="-242" type="line"/>
      <point x="249" y="-212" type="line"/>
      <point x="169" y="-212" type="line"/>
      <point x="169" y="684" type="line"/>
      <point x="247" y="685" type="line"/>
      <point x="247" y="714" type="line"/>
      <point x="75" y="714" type="line"/>
    </contour>
  </outline>
</glyph>
<glyph name="backslash" format="1">
  <advance width="415"/>
  <unicode hex="005C"/>
  <outline>
    <contour>
      <point x="383" y="-242" type="line"/>
      <point x="-28" y="714" type="line"/>
      <point x="32" y="714" type="line"/>
      <point x="442" y="-242" type="line"/>
    </contour>
  </outline>
</glyph>
<glyph name="bracketright" format="1">
  <advance width="267"/>
  <unicode hex="005D"/>
  <outline>
    <contour>
      <point x="193" y="-242" type="line"/>
      <point x="18" y="-242" type="line"/>
      <point x="18" y="-212" type="line"/>
      <point x="98" y="-212" type="line"/>
      <point x="98" y="684" type="line"/>
      <point x="20" y="685" type="line"/>
      <point x="20" y="714" type="line"/>
      <point x="192" y="714" type="line"/>
    </contour>
  </outline>
</glyph>
<glyph name="underscore" format="1">
  <advance width="533"/>
  <unicode hex="005F"/>
  <outline>
    <contour>
      <point x="32" y="-96" type="line"/>
      <point x="500" y="-96" type="line"/>
      <point x="500" y="-54" type="line"/>
      <point x="32" y="-54" type="line"/>
    </contour>
  </outline>
</glyph>
<glyph name="f" format="1">
  <advance width="332"/>
  <unicode hex="0066"/>
  <outline>
    <contour>
      <point x="209" y="25" type="line"/>
      <point x="209" y="464" type="line"/>
      <point x="327" y="469" type="line"/>
      <point x="327" y="490" type="line"/>
      <point x="209" y="490" type="line"/>
      <point x="209" y="604" type="line" smooth="yes"/>
      <point x="209" y="638"/>
      <point x="211" y="685"/>
      <point x="250" y="685" type="curve" smooth="yes"/>
      <point x="262" y="685"/>
      <point x="272" y="679"/>
      <point x="274" y="673" type="curve"/>
      <point x="274" y="671" type="line"/>
      <point x="260" y="662"/>
      <point x="253" y="639"/>
      <point x="253" y="623" type="curve" smooth="yes"/>
      <point x="253" y="596"/>
      <point x="272" y="567"/>
      <point x="309" y="567" type="curve" smooth="yes"/>
      <point x="344" y="567"/>
      <point x="365" y="594"/>
      <point x="365" y="625" type="curve" smooth="yes"/>
      <point x="365" y="671"/>
      <point x="327" y="707"/>
      <point x="255" y="707" type="curve" smooth="yes"/>
      <point x="211" y="707"/>
      <point x="92" y="699"/>
      <point x="89" y="490" type="curve"/>
      <point x="18" y="490" type="line"/>
      <point x="18" y="469" type="line"/>
      <point x="89" y="464" type="line"/>
      <point x="89" y="25" type="line"/>
      <point x="40" y="20" type="line"/>
      <point x="40" y="0" type="line"/>
      <point x="279" y="0" type="line"/>
      <point x="279" y="20" type="line"/>
    </contour>
  </outline>
</glyph>
<glyph name="g" format="1">
  <advance width="547"/>
  <unicode hex="0067"/>
  <outline>
    <contour>
      <point x="145" y="505"/>
      <point x="56" y="432"/>
      <point x="56" y="334" type="curve" smooth="yes"/>
      <point x="56" y="273"/>
      <point x="86" y="220"/>
      <point x="146" y="191" type="curve"/>
      <point x="146" y="190" type="line"/>
      <point x="108" y="179"/>
      <point x="50" y="139"/>
      <point x="50" y="76" type="curve" smooth="yes"/>
      <point x="50" y="22"/>
      <point x="88" y="-6"/>
      <point x="141" y="-22" type="curve"/>
      <point x="141" y="-23" type="line"/>
      <point x="111" y="-23"/>
      <point x="32" y="-48"/>
      <point x="32" y="-125" type="curve" smooth="yes"/>
      <point x="32" y="-224"/>
      <point x="174" y="-242"/>
      <point x="264" y="-242" type="curve" smooth="yes"/>
      <point x="438" y="-242"/>
      <point x="500" y="-144"/>
      <point x="500" y="-69" type="curve" smooth="yes"/>
      <point x="500" y="45"/>
      <point x="445" y="79"/>
      <point x="271" y="79" type="curve" smooth="yes"/>
      <point x="180" y="79"/>
      <point x="109" y="90"/>
      <point x="109" y="124" type="curve" smooth="yes"/>
      <point x="109" y="146"/>
      <point x="133" y="168"/>
      <point x="171" y="182" type="curve"/>
      <point x="196" y="174"/>
      <point x="225" y="169"/>
      <point x="257" y="169" type="curve" smooth="yes"/>
      <point x="371" y="169"/>
      <point x="456" y="237"/>
      <point x="456" y="335" type="curve" smooth="yes"/>
      <point x="456" y="375"/>
      <point x="440" y="415"/>
      <point x="411" y="446" type="curve"/>
      <point x="422" y="475"/>
      <point x="440" y="498"/>
      <point x="458" y="501" type="curve"/>
      <point x="458" y="499" type="line"/>
      <point x="452" y="490"/>
      <point x="452" y="481"/>
      <point x="452" y="475" type="curve" smooth="yes"/>
      <point x="452" y="445"/>
      <point x="473" y="428"/>
      <point x="502" y="428" type="curve" smooth="yes"/>
      <point x="529" y="428"/>
      <point x="548" y="451"/>
      <point x="548" y="480" type="curve" smooth="yes"/>
      <point x="548" y="512"/>
      <point x="527" y="537"/>
      <point x="488" y="537" type="curve" smooth="yes"/>
      <point x="440" y="537"/>
      <point x="410" y="495"/>
      <point x="393" y="462" type="curve"/>
      <point x="360" y="488"/>
      <point x="315" y="505"/>
      <point x="258" y="505" type="curve" smooth="yes"/>
    </contour>
    <contour>
      <point x="445" y="-172"/>
      <point x="384" y="-216"/>
      <point x="282" y="-216" type="curve" smooth="yes"/>
      <point x="206" y="-216"/>
      <point x="119" y="-194"/>
      <point x="119" y="-110" type="curve" smooth="yes"/>
      <point x="119" y="-53"/>
      <point x="160" y="-28"/>
      <point x="161" y="-27" type="curve"/>
      <point x="282" y="-46"/>
      <point x="445" y="-5"/>
      <point x="445" y="-111" type="curve" smooth="yes"/>
    </contour>
    <contour>
      <point x="203" y="191"/>
      <point x="176" y="244"/>
      <point x="176" y="337" type="curve" smooth="yes"/>
      <point x="176" y="429"/>
      <point x="205" y="483"/>
      <point x="258" y="483" type="curve" smooth="yes"/>
      <point x="314" y="483"/>
      <point x="335" y="436"/>
      <point x="335" y="334" type="curve" smooth="yes"/>
      <point x="335" y="243"/>
      <point x="311" y="191"/>
      <point x="256" y="191" type="curve" smooth="yes"/>
    </contour>
    <contour>
      <point x="251" y="490" type="move" name="top"/>
    </contour>
    <contour>
      <point x="274" y="0" type="move" name="bottom"/>
    </contour>
  </outline>
</glyph>
<glyph name="l" format="1">
  <advance width="279"/>
  <unicode hex="006C"/>
  <outline>
    <contour>
      <point x="200" y="693" type="line"/>
      <point x="191" y="707" type="line"/>
      <point x="122" y="689" type="line"/>
      <point x="20" y="678" type="line"/>
      <point x="20" y="658" type="line"/>
      <point x="80" y="658" type="line"/>
      <point x="80" y="25" type="line"/>
      <point x="30" y="20" type="line"/>
      <point x="30" y="0" type="line"/>
      <point x="250" y="0" type="line"/>
      <point x="250" y="20" type="line"/>
      <point x="200" y="25" type="line"/>
    </contour>
  </outline>
</glyph>
<glyph name="o" format="1">
  <advance width="523"/>
  <unicode hex="006F"/>
  <outline>
    <contour>
      <point x="132" y="505"/>
      <point x="39" y="391"/>
      <point x="39" y="242" type="curve" smooth="yes"/>
      <point x="39" y="103"/>
      <point x="106" y="-15"/>
      <point x="263" y="-15" type="curve" smooth="yes"/>
      <point x="396" y="-15"/>
      <point x="484" y="101"/>
      <point x="484" y="245" type="curve" smooth="yes"/>
      <point x="484" y="375"/>
      <point x="413" y="505"/>
      <point x="264" y="505" type="curve" smooth="yes"/>
    </contour>
    <contour>
      <point x="190" y="7"/>
      <point x="164" y="108"/>
      <point x="164" y="248" type="curve" smooth="yes"/>
      <point x="164" y="383"/>
      <point x="190" y="483"/>
      <point x="261" y="483" type="curve" smooth="yes"/>
      <point x="337" y="483"/>
      <point x="359" y="393"/>
      <point x="359" y="242" type="curve" smooth="yes"/>
      <point x="359" y="107"/>
      <point x="334" y="7"/>
      <point x="261" y="7" type="curve" smooth="yes"/>
    </contour>
  </outline>
</glyph>
<glyph name="p" format="1">
  <advance width="544"/>
  <unicode hex="0070"/>
  <outline>
    <contour>
      <point x="200" y="422" type="line"/>
      <point x="200" y="486" type="line"/>
      <point x="193" y="500" type="line"/>
      <point x="125" y="482" type="line"/>
      <point x="22" y="471" type="line"/>
      <point x="22" y="451" type="line"/>
      <point x="83" y="451" type="line"/>
      <point x="83" y="-207" type="line"/>
      <point x="32" y="-212" type="line"/>
      <point x="32" y="-232" type="line"/>
      <point x="252" y="-232" type="line"/>
      <point x="252" y="-212" type="line"/>
      <point x="202" y="-207" type="line"/>
      <point x="202" y="10" type="line"/>
      <point x="228" y="-10"/>
      <point x="263" y="-15"/>
      <point x="282" y="-15" type="curve" smooth="yes"/>
      <point x="433" y="-15"/>
      <point x="503" y="106"/>
      <point x="503" y="250" type="curve" smooth="yes"/>
      <point x="503" y="472"/>
      <point x="380" y="505"/>
      <point x="334" y="505" type="curve" smooth="yes"/>
      <point x="281" y="505"/>
      <point x="241" y="489"/>
      <point x="202" y="422" type="curve"/>
    </contour>
    <contour>
      <point x="202" y="336" type="line" smooth="yes"/>
      <point x="202" y="400"/>
      <point x="240" y="466"/>
      <point x="292" y="466" type="curve" smooth="yes"/>
      <point x="344" y="466"/>
      <point x="378" y="421"/>
      <point x="378" y="257" type="curve" smooth="yes"/>
      <point x="378" y="165"/>
      <point x="375" y="11"/>
      <point x="262" y="11" type="curve" smooth="yes"/>
      <point x="243" y="11"/>
      <point x="220" y="20"/>
      <point x="202" y="36" type="curve"/>
    </contour>
  </outline>
</glyph>
<glyph name="q" format="1">
  <advance width="537"/>
  <unicode hex="0071"/>
  <outline>
    <contour>
      <point x="465" y="-207" type="line"/>
      <point x="465" y="490" type="line"/>
      <point x="445" y="490" type="line"/>
      <point x="345" y="452" type="line"/>
      <point x="316" y="493"/>
      <point x="271" y="505"/>
      <point x="240" y="505" type="curve" smooth="yes"/>
      <point x="106" y="505"/>
      <point x="41" y="377"/>
      <point x="41" y="235" type="curve" smooth="yes"/>
      <point x="41" y="12"/>
      <point x="164" y="-15"/>
      <point x="210" y="-15" type="curve" smooth="yes"/>
      <point x="263" y="-15"/>
      <point x="304" y="3"/>
      <point x="343" y="69" type="curve"/>
      <point x="345" y="69" type="line"/>
      <point x="345" y="-207" type="line"/>
      <point x="295" y="-212" type="line"/>
      <point x="295" y="-232" type="line"/>
      <point x="515" y="-232" type="line"/>
      <point x="515" y="-212" type="line"/>
    </contour>
    <contour>
      <point x="213" y="25"/>
      <point x="166" y="61"/>
      <point x="166" y="230" type="curve" smooth="yes"/>
      <point x="166" y="322"/>
      <point x="169" y="476"/>
      <point x="266" y="476" type="curve" smooth="yes"/>
      <point x="308" y="476"/>
      <point x="341" y="433"/>
      <point x="345" y="386" type="curve"/>
      <point x="345" y="155" type="line" smooth="yes"/>
      <point x="345" y="91"/>
      <point x="301" y="25"/>
      <point x="252" y="25" type="curve" smooth="yes"/>
    </contour>
  </outline>
</glyph>
<glyph name="r" format="1">
  <advance width="424"/>
  <unicode hex="0072"/>
  <outline>
    <contour>
      <point x="303" y="464" type="line"/>
      <point x="294" y="454"/>
      <point x="292" y="435"/>
      <point x="292" y="426" type="curve" smooth="yes"/>
      <point x="292" y="393"/>
      <point x="315" y="365"/>
      <point x="355" y="365" type="curve" smooth="yes"/>
      <point x="393" y="365"/>
      <point x="417" y="395"/>
      <point x="417" y="431" type="curve" smooth="yes"/>
      <point x="417" y="475"/>
      <point x="388" y="505"/>
      <point x="337" y="505" type="curve" smooth="yes"/>
      <point x="280" y="505"/>
      <point x="229" y="447"/>
      <point x="208" y="402" type="curve"/>
      <point x="206" y="402" type="line"/>
      <point x="206" y="486" type="line"/>
      <point x="199" y="500" type="line"/>
      <point x="130" y="482" type="line"/>
      <point x="28" y="471" type="line"/>
      <point x="28" y="451" type="line"/>
      <point x="88" y="451" type="line"/>
      <point x="88" y="25" type="line"/>
      <point x="38" y="20" type="line"/>
      <point x="38" y="0" type="line"/>
      <point x="258" y="0" type="line"/>
      <point x="258" y="20" type="line"/>
      <point x="208" y="25" type="line"/>
      <point x="208" y="268" type="line" smooth="yes"/>
      <point x="208" y="398"/>
      <point x="263" y="458"/>
      <point x="303" y="467" type="curve"/>
    </contour>
  </outline>
</glyph>
<glyph name="s" format="1">
  <advance width="445"/>
  <unicode hex="0073"/>
  <outline>
    <contour>
      <point x="137" y="9"/>
      <point x="100" y="36"/>
      <point x="89" y="62" type="curve"/>
      <point x="89" y="63" type="line"/>
      <point x="91" y="62"/>
      <point x="95" y="62"/>
      <point x="97" y="62" type="curve" smooth="yes"/>
      <point x="124" y="62"/>
      <point x="152" y="81"/>
      <point x="152" y="118" type="curve"/>
      <point x="151" y="148"/>
      <point x="131" y="174"/>
      <point x="96" y="174" type="curve" smooth="yes"/>
      <point x="56" y="174"/>
      <point x="33" y="140"/>
      <point x="33" y="104" type="curve" smooth="yes"/>
      <point x="33" y="18"/>
      <point x="129" y="-14"/>
      <point x="197" y="-14" type="curve" smooth="yes"/>
      <point x="339" y="-14"/>
      <point x="402" y="46"/>
      <point x="402" y="130" type="curve" smooth="yes"/>
      <point x="402" y="230"/>
      <point x="299" y="276"/>
      <point x="223" y="315" type="curve"/>
      <point x="145" y="361"/>
      <point x="125" y="375"/>
      <point x="125" y="412" type="curve" smooth="yes"/>
      <point x="125" y="444"/>
      <point x="151" y="484"/>
      <point x="220" y="484" type="curve" smooth="yes"/>
      <point x="268" y="484"/>
      <point x="305" y="464"/>
      <point x="318" y="444" type="curve"/>
      <point x="318" y="443" type="line"/>
      <point x="313" y="443" type="line" smooth="yes"/>
      <point x="290" y="443"/>
      <point x="267" y="427"/>
      <point x="267" y="389" type="curve" smooth="yes"/>
      <point x="267" y="359"/>
      <point x="286" y="335"/>
      <point x="323" y="335" type="curve" smooth="yes"/>
      <point x="359" y="335"/>
      <point x="380" y="365"/>
      <point x="380" y="394" type="curve" smooth="yes"/>
      <point x="380" y="467"/>
      <point x="296" y="506"/>
      <point x="220" y="506" type="curve" smooth="yes"/>
      <point x="120" y="506"/>
      <point x="49" y="449"/>
      <point x="49" y="361" type="curve" smooth="yes"/>
      <point x="49" y="261"/>
      <point x="141" y="222"/>
      <point x="205" y="184" type="curve"/>
      <point x="279" y="144"/>
      <point x="304" y="124"/>
      <point x="304" y="81" type="curve" smooth="yes"/>
      <point x="304" y="40"/>
      <point x="269" y="9"/>
      <point x="195" y="9" type="curve" smooth="yes"/>
    </contour>
    <contour>
      <point x="223" y="490" type="move" name="top"/>
    </contour>
    <contour>
      <point x="223" y="0" type="move" name="bottom"/>
    </contour>
  </outline>
</glyph>
<glyph name="t" format="1">
  <advance width="368"/>
  <unicode hex="0074"/>
  <outline>
    <contour>
      <point x="85" y="598" type="line"/>
      <point x="85" y="490" type="line"/>
      <point x="2" y="490" type="line"/>
      <point x="2" y="469" type="line"/>
      <point x="85" y="465" type="line"/>
      <point x="85" y="149" type="line" smooth="yes"/>
      <point x="85" y="6"/>
      <point x="156" y="-15"/>
      <point x="224" y="-15" type="curve" smooth="yes"/>
      <point x="313" y="-15"/>
      <point x="356" y="64"/>
      <point x="375" y="95" type="curve"/>
      <point x="354" y="108" type="line"/>
      <point x="335" y="76"/>
      <point x="308" y="33"/>
      <point x="265" y="33" type="curve" smooth="yes"/>
      <point x="252" y="33"/>
      <point x="206" y="35"/>
      <point x="206" y="121" type="curve" smooth="yes"/>
      <point x="206" y="465" type="line"/>
      <point x="313" y="469" type="line"/>
      <point x="313" y="490" type="line"/>
      <point x="206" y="490" type="line"/>
      <point x="206" y="606" type="line"/>
      <point x="196" y="621" type="line"/>
      <point x="127" y="603" type="line"/>
    </contour>
  </outline>
</glyph>
<glyph name="y" format="1">
  <advance width="471"/>
  <unicode hex="0079"/>
  <outline>
    <contour>
      <point x="228" y="-91" type="line"/>
      <point x="213" y="-132"/>
      <point x="184" y="-208"/>
      <point x="135" y="-208" type="curve"/>
      <point x="135" y="-207" type="line"/>
      <point x="150" y="-196"/>
      <point x="157" y="-173"/>
      <point x="157" y="-163" type="curve" smooth="yes"/>
      <point x="157" y="-131"/>
      <point x="140" y="-102"/>
      <point x="100" y="-102" type="curve" smooth="yes"/>
      <point x="65" y="-102"/>
      <point x="39" y="-131"/>
      <point x="39" y="-169" type="curve" smooth="yes"/>
      <point x="39" y="-210"/>
      <point x="71" y="-242"/>
      <point x="121" y="-242" type="curve" smooth="yes"/>
      <point x="166" y="-242"/>
      <point x="214" y="-223"/>
      <point x="261" y="-84" type="curve"/>
      <point x="423" y="465" type="line"/>
      <point x="474" y="470" type="line"/>
      <point x="474" y="490" type="line"/>
      <point x="341" y="490" type="line"/>
      <point x="341" y="470" type="line"/>
      <point x="395" y="465" type="line"/>
      <point x="299" y="146" type="line"/>
      <point x="172" y="465" type="line"/>
      <point x="225" y="470" type="line"/>
      <point x="225" y="490" type="line"/>
      <point x="-6" y="490" type="line"/>
      <point x="-6" y="470" type="line"/>
      <point x="42" y="465" type="line"/>
      <point x="250" y="-17" type="line"/>
    </contour>
  </outline>
</glyph>
<glyph name="asciitilde" format="1">
  <advance width="538"/>
  <unicode hex="007E"/>
  <outline>
    <contour>
      <point x="104" y="372"/>
      <point x="68" y="292"/>
      <point x="46" y="219" type="curve"/>
      <point x="74" y="219" type="line"/>
      <point x="87" y="254"/>
      <point x="99" y="277"/>
      <point x="143" y="277" type="curve" smooth="yes"/>
      <point x="203" y="277"/>
      <point x="277" y="213"/>
      <point x="357" y="213" type="curve" smooth="yes"/>
      <point x="441" y="213"/>
      <point x="477" y="297"/>
      <point x="494" y="371" type="curve"/>
      <point x="466" y="371" type="line"/>
      <point x="453" y="335"/>
      <point x="429" y="311"/>
      <point x="390" y="311" type="curve" smooth="yes"/>
      <point x="306" y="311"/>
      <point x="270" y="372"/>
      <point x="197" y="372" type="curve" smooth="yes"/>
    </contour>
  </outline>
</glyph>
<glyph name="exclamdown" format="1">
  <advance width="263"/>
  <unicode hex="00A1"/>
  <outline>
    <contour>
      <point x="120" y="457" type="line"/>
      <point x="113" y="243"/>
      <point x="61" y="86"/>
      <point x="61" y="4" type="curve" smooth="yes"/>
      <point x="61" y="-36"/>
      <point x="83" y="-78"/>
      <point x="129" y="-78" type="curve" smooth="yes"/>
      <point x="176" y="-78"/>
      <point x="203" y="-36"/>
      <point x="203" y="4" type="curve" smooth="yes"/>
      <point x="203" y="86"/>
      <point x="149" y="243"/>
      <point x="143" y="457" type="curve"/>
    </contour>
    <contour>
      <point x="199" y="619"/>
      <point x="172" y="646"/>
      <point x="133" y="646" type="curve" smooth="yes"/>
      <point x="92" y="646"/>
      <point x="64" y="619"/>
      <point x="64" y="580" type="curve" smooth="yes"/>
      <point x="64" y="539"/>
      <point x="92" y="511"/>
      <point x="133" y="511" type="curve" smooth="yes"/>
      <point x="172" y="511"/>
      <point x="199" y="539"/>
      <point x="199" y="580" type="curve" smooth="yes"/>
    </contour>
  </outline>
</glyph>
<glyph name="yen" format="1">
  <advance width="589"/>
  <unicode hex="00A5"/>
  <outline>
    <contour>
      <point x="119" y="360" type="line"/>
      <point x="119" y="308" type="line"/>
      <point x="255" y="308" type="line"/>
      <point x="255" y="238" type="line"/>
      <point x="119" y="238" type="line"/>
      <point x="119" y="186" type="line"/>
      <point x="255" y="186" type="line"/>
      <point x="255" y="27" type="line"/>
      <point x="180" y="22" type="line"/>
      <point x="180" y="0" type="line"/>
      <point x="455" y="0" type="line"/>
      <point x="455" y="22" type="line"/>
      <point x="380" y="27" type="line"/>
      <point x="380" y="186" type="line"/>
      <point x="516" y="186" type="line"/>
      <point x="516" y="238" type="line"/>
      <point x="380" y="238" type="line"/>
      <point x="380" y="308" type="line"/>
      <point x="516" y="308" type="line"/>
      <point x="516" y="360" type="line"/>
      <point x="388" y="360" type="line"/>
      <point x="532" y="670" type="line"/>
      <point x="593" y="675" type="line"/>
      <point x="593" y="697" type="line"/>
      <point x="430" y="697" type="line"/>
      <point x="430" y="675" type="line"/>
      <point x="499" y="670" type="line"/>
      <point x="361" y="374" type="line"/>
      <point x="359" y="374" type="line"/>
      <point x="194" y="670" type="line"/>
      <point x="270" y="675" type="line"/>
      <point x="270" y="697" type="line"/>
      <point x="-17" y="697" type="line"/>
      <point x="-17" y="675" type="line"/>
      <point x="49" y="670" type="line"/>
      <point x="228" y="360" type="line"/>
    </contour>
  </outline>
</glyph>
<glyph name="section" format="1">
  <advance width="483"/>
  <unicode hex="00A7"/>
  <outline>
    <contour>
      <point x="431" y="22"/>
      <point x="418" y="63"/>
      <point x="394" y="96" type="curve"/>
      <point x="437" y="142"/>
      <point x="446" y="204"/>
      <point x="446" y="240" type="curve" smooth="yes"/>
      <point x="446" y="351"/>
      <point x="394" y="396"/>
      <point x="247" y="458" type="curve" smooth="yes"/>
      <point x="151" y="498"/>
      <point x="126" y="531"/>
      <point x="126" y="587" type="curve" smooth="yes"/>
      <point x="126" y="652"/>
      <point x="170" y="688"/>
      <point x="245" y="688" type="curve" smooth="yes"/>
      <point x="297" y="688"/>
      <point x="338" y="667"/>
      <point x="353" y="645" type="curve"/>
      <point x="353" y="643" type="line"/>
      <point x="314" y="643"/>
      <point x="286" y="620"/>
      <point x="286" y="577" type="curve" smooth="yes"/>
      <point x="286" y="540"/>
      <point x="312" y="512"/>
      <point x="352" y="512" type="curve" smooth="yes"/>
      <point x="397" y="512"/>
      <point x="421" y="546"/>
      <point x="421" y="584" type="curve" smooth="yes"/>
      <point x="421" y="628"/>
      <point x="387" y="714"/>
      <point x="251" y="714" type="curve" smooth="yes"/>
      <point x="101" y="714"/>
      <point x="56" y="611"/>
      <point x="56" y="542" type="curve" smooth="yes"/>
      <point x="56" y="495"/>
      <point x="67" y="455"/>
      <point x="91" y="422" type="curve"/>
      <point x="50" y="379"/>
      <point x="41" y="317"/>
      <point x="41" y="282" type="curve" smooth="yes"/>
      <point x="41" y="171"/>
      <point x="88" y="126"/>
      <point x="235" y="64" type="curve" smooth="yes"/>
      <point x="331" y="23"/>
      <point x="361" y="-14"/>
      <point x="361" y="-71" type="curve" smooth="yes"/>
      <point x="361" y="-135"/>
      <point x="306" y="-166"/>
      <point x="231" y="-166" type="curve" smooth="yes"/>
      <point x="179" y="-166"/>
      <point x="135" y="-142"/>
      <point x="121" y="-121" type="curve"/>
      <point x="121" y="-119" type="line"/>
      <point x="160" y="-119"/>
      <point x="188" y="-95"/>
      <point x="188" y="-53" type="curve" smooth="yes"/>
      <point x="188" y="-15"/>
      <point x="162" y="13"/>
      <point x="122" y="13" type="curve" smooth="yes"/>
      <point x="76" y="13"/>
      <point x="53" y="-24"/>
      <point x="53" y="-63" type="curve" smooth="yes"/>
      <point x="53" y="-107"/>
      <point x="90" y="-192"/>
      <point x="229" y="-192" type="curve" smooth="yes"/>
      <point x="385" y="-192"/>
      <point x="431" y="-95"/>
      <point x="431" y="-25" type="curve" smooth="yes"/>
    </contour>
    <contour>
      <point x="347" y="285"/>
      <point x="398" y="231"/>
      <point x="398" y="177" type="curve" smooth="yes"/>
      <point x="398" y="160"/>
      <point x="394" y="133"/>
      <point x="379" y="113" type="curve"/>
      <point x="358" y="136"/>
      <point x="331" y="154"/>
      <point x="296" y="169" type="curve" smooth="yes"/>
      <point x="135" y="237"/>
      <point x="89" y="291"/>
      <point x="89" y="345" type="curve" smooth="yes"/>
      <point x="89" y="362"/>
      <point x="96" y="393"/>
      <point x="105" y="405" type="curve"/>
      <point x="125" y="384"/>
      <point x="152" y="367"/>
      <point x="186" y="353" type="curve" smooth="yes"/>
    </contour>
  </outline>
</glyph>
<glyph name="dieresis" format="1">
  <advance width="359"/>
  <unicode hex="00A8"/>
  <outline>
    <contour>
      <point x="207" y="636"/>
      <point x="229" y="608"/>
      <point x="263" y="608" type="curve" smooth="yes"/>
      <point x="298" y="608"/>
      <point x="320" y="636"/>
      <point x="320" y="673" type="curve" smooth="yes"/>
      <point x="320" y="710"/>
      <point x="298" y="738"/>
      <point x="263" y="738" type="curve" smooth="yes"/>
      <point x="229" y="738"/>
      <point x="207" y="710"/>
      <point x="207" y="673" type="curve" smooth="yes"/>
    </contour>
    <contour>
      <point x="39" y="636"/>
      <point x="61" y="608"/>
      <point x="96" y="608" type="curve" smooth="yes"/>
      <point x="130" y="608"/>
      <point x="153" y="636"/>
      <point x="153" y="673" type="curve" smooth="yes"/>
      <point x="153" y="710"/>
      <point x="130" y="738"/>
      <point x="96" y="738" type="curve" smooth="yes"/>
      <point x="61" y="738"/>
      <point x="39" y="710"/>
      <point x="39" y="673" type="curve" smooth="yes"/>
    </contour>
    <contour>
      <point x="181" y="534" type="move" name="_top"/>
    </contour>
  </outline>
</glyph>
<glyph name="copyright" format="1">
  <advance width="729"/>
  <unicode hex="00A9"/>
  <outline>
    <contour>
      <point x="248" y="502"/>
      <point x="189" y="376"/>
      <point x="189" y="274" type="curve" smooth="yes"/>
      <point x="189" y="139"/>
      <point x="250" y="50"/>
      <point x="390" y="50" type="curve" smooth="yes"/>
      <point x="443" y="50"/>
      <point x="498" y="71"/>
      <point x="540" y="145" type="curve"/>
      <point x="521" y="157" type="line"/>
      <point x="486" y="103"/>
      <point x="438" y="89"/>
      <point x="409" y="89" type="curve" smooth="yes"/>
      <point x="353" y="89"/>
      <point x="298" y="125"/>
      <point x="298" y="276" type="curve" smooth="yes"/>
      <point x="298" y="391"/>
      <point x="324" y="472"/>
      <point x="401" y="472" type="curve" smooth="yes"/>
      <point x="442" y="472"/>
      <point x="468" y="452"/>
      <point x="475" y="441" type="curve"/>
      <point x="475" y="438" type="line"/>
      <point x="439" y="445"/>
      <point x="416" y="419"/>
      <point x="416" y="388" type="curve" smooth="yes"/>
      <point x="416" y="358"/>
      <point x="436" y="335"/>
      <point x="468" y="335" type="curve" smooth="yes"/>
      <point x="503" y="335"/>
      <point x="522" y="362"/>
      <point x="522" y="391" type="curve" smooth="yes"/>
      <point x="522" y="450"/>
      <point x="466" y="502"/>
      <point x="385" y="502" type="curve" smooth="yes"/>
    </contour>
    <contour>
      <point x="40" y="95"/>
      <point x="177" y="-51"/>
      <point x="364" y="-51" type="curve" smooth="yes"/>
      <point x="552" y="-51"/>
      <point x="690" y="95"/>
      <point x="690" y="273" type="curve" smooth="yes"/>
      <point x="690" y="453"/>
      <point x="552" y="599"/>
      <point x="364" y="599" type="curve" smooth="yes"/>
      <point x="177" y="599"/>
      <point x="40" y="453"/>
      <point x="40" y="273" type="curve" smooth="yes"/>
    </contour>
    <contour>
      <point x="74" y="438"/>
      <point x="193" y="573"/>
      <point x="364" y="573" type="curve" smooth="yes"/>
      <point x="536" y="573"/>
      <point x="656" y="438"/>
      <point x="656" y="273" type="curve" smooth="yes"/>
      <point x="656" y="109"/>
      <point x="536" y="-25"/>
      <point x="364" y="-25" type="curve" smooth="yes"/>
      <point x="193" y="-25"/>
      <point x="74" y="109"/>
      <point x="74" y="273" type="curve" smooth="yes"/>
    </contour>
  </outline>
</glyph>
<glyph name="guillemotleft" format="1">
  <advance width="440"/>
  <unicode hex="00AB"/>
  <outline>
    <contour>
      <point x="39" y="234" type="line"/>
      <point x="213" y="76" type="line"/>
      <point x="231" y="94" type="line"/>
      <point x="123" y="243" type="line"/>
      <point x="123" y="243" type="line"/>
      <point x="231" y="392" type="line"/>
      <point x="213" y="410" type="line"/>
      <point x="39" y="252" type="line"/>
    </contour>
    <contour>
      <point x="205" y="234" type="line"/>
      <point x="379" y="62" type="line"/>
      <point x="397" y="80" type="line"/>
      <point x="289" y="243" type="line"/>
      <point x="289" y="243" type="line"/>
      <point x="397" y="406" type="line"/>
      <point x="379" y="424" type="line"/>
      <point x="205" y="252" type="line"/>
    </contour>
  </outline>
</glyph>
<glyph name="logicalnot" format="1">
  <advance width="560"/>
  <unicode hex="00AC"/>
  <outline>
    <contour>
      <point x="449" y="171" type="line"/>
      <point x="502" y="171" type="line"/>
      <point x="502" y="343" type="line"/>
      <point x="57" y="343" type="line"/>
      <point x="57" y="289" type="line"/>
      <point x="449" y="289" type="line"/>
    </contour>
  </outline>
</glyph>
<glyph name="uni00AD" format="1">
  <advance width="364"/>
  <unicode hex="00AD"/>
  <outline>
    <contour>
      <point x="57" y="343" type="line"/>
      <point x="57" y="289" type="line"/>
      <point x="307" y="289" type="line"/>
      <point x="307" y="343" type="line"/>
    </contour>
  </outline>
</glyph>
<glyph name="macron" format="1">
  <advance width="468"/>
  <unicode hex="00AF"/>
  <outline>
    <contour>
      <point x="0" y="655" type="line"/>
      <point x="468" y="655" type="line"/>
      <point x="468" y="697" type="line"/>
      <point x="0" y="697" type="line"/>
    </contour>
  </outline>
</glyph>
<glyph name="degree" format="1">
  <advance width="385"/>
  <unicode hex="00B0"/>
  <outline>
    <contour>
      <point x="36" y="471"/>
      <point x="102" y="400"/>
      <point x="192" y="400" type="curve" smooth="yes"/>
      <point x="283" y="400"/>
      <point x="349" y="471"/>
      <point x="349" y="557" type="curve" smooth="yes"/>
      <point x="349" y="644"/>
      <point x="283" y="714"/>
      <point x="192" y="714" type="curve" smooth="yes"/>
      <point x="102" y="714"/>
      <point x="36" y="644"/>
      <point x="36" y="557" type="curve" smooth="yes"/>
    </contour>
    <contour>
      <point x="88" y="619"/>
      <point x="128" y="672"/>
      <point x="192" y="672" type="curve" smooth="yes"/>
      <point x="257" y="672"/>
      <point x="297" y="619"/>
      <point x="297" y="557" type="curve" smooth="yes"/>
      <point x="297" y="495"/>
      <point x="257" y="442"/>
      <point x="192" y="442" type="curve" smooth="yes"/>
      <point x="128" y="442"/>
      <point x="88" y="495"/>
      <point x="88" y="557" type="curve" smooth="yes"/>
    </contour>
  </outline>
</glyph>
<glyph name="uni00B2" format="1">
  <advance width="350"/>
  <unicode hex="00B2"/>
  <outline>
    <contour>
      <point x="59" y="347" type="line"/>
      <point x="293" y="347" type="line"/>
      <point x="295" y="459" type="line"/>
      <point x="284" y="459" type="line"/>
      <point x="281" y="419"/>
      <point x="262" y="415"/>
      <point x="207" y="414" type="curve" smooth="yes"/>
      <point x="101" y="412" type="line"/>
      <point x="101" y="413" type="line"/>
      <point x="215" y="479"/>
      <point x="286" y="545"/>
      <point x="286" y="618" type="curve" smooth="yes"/>
      <point x="286" y="667"/>
      <point x="251" y="714"/>
      <point x="166" y="714" type="curve" smooth="yes"/>
      <point x="86" y="714"/>
      <point x="50" y="664"/>
      <point x="50" y="625" type="curve" smooth="yes"/>
      <point x="50" y="596"/>
      <point x="65" y="576"/>
      <point x="93" y="576" type="curve" smooth="yes"/>
      <point x="119" y="576"/>
      <point x="136" y="594"/>
      <point x="136" y="619" type="curve" smooth="yes"/>
      <point x="136" y="644"/>
      <point x="123" y="660"/>
      <point x="95" y="660" type="curve" smooth="yes"/>
      <point x="93" y="660"/>
      <point x="87" y="660"/>
      <point x="84" y="658" type="curve"/>
      <point x="84" y="659" type="line" smooth="yes"/>
      <point x="89" y="676"/>
      <point x="110" y="695"/>
      <point x="146" y="695" type="curve" smooth="yes"/>
      <point x="179" y="695"/>
      <point x="198" y="675"/>
      <point x="198" y="626" type="curve" smooth="yes"/>
      <point x="198" y="536"/>
      <point x="180" y="475"/>
      <point x="59" y="402" type="curve"/>
    </contour>
  </outline>
</glyph>
<glyph name="uni00B3" format="1">
  <advance width="336"/>
  <unicode hex="00B3"/>
  <outline>
    <contour>
      <point x="179" y="539" type="line"/>
      <point x="245" y="551"/>
      <point x="277" y="584"/>
      <point x="277" y="627" type="curve" smooth="yes"/>
      <point x="277" y="686"/>
      <point x="230" y="714"/>
      <point x="160" y="714" type="curve" smooth="yes"/>
      <point x="85" y="714"/>
      <point x="49" y="665"/>
      <point x="49" y="628" type="curve" smooth="yes"/>
      <point x="49" y="599"/>
      <point x="65" y="581"/>
      <point x="92" y="581" type="curve" smooth="yes"/>
      <point x="117" y="581"/>
      <point x="131" y="597"/>
      <point x="131" y="620" type="curve" smooth="yes"/>
      <point x="131" y="646"/>
      <point x="114" y="664"/>
      <point x="83" y="660" type="curve"/>
      <point x="83" y="661" type="line" smooth="yes"/>
      <point x="88" y="676"/>
      <point x="111" y="696"/>
      <point x="146" y="696" type="curve" smooth="yes"/>
      <point x="178" y="696"/>
      <point x="201" y="677"/>
      <point x="201" y="626" type="curve" smooth="yes"/>
      <point x="201" y="582"/>
      <point x="191" y="545"/>
      <point x="134" y="545" type="curve" smooth="yes"/>
      <point x="120" y="545" type="line"/>
      <point x="120" y="530" type="line"/>
      <point x="135" y="530" type="line" smooth="yes"/>
      <point x="192" y="530"/>
      <point x="212" y="497"/>
      <point x="212" y="435" type="curve" smooth="yes"/>
      <point x="212" y="384"/>
      <point x="185" y="358"/>
      <point x="141" y="358" type="curve" smooth="yes"/>
      <point x="108" y="358"/>
      <point x="91" y="369"/>
      <point x="82" y="383" type="curve"/>
      <point x="82" y="385" type="line"/>
      <point x="114" y="381"/>
      <point x="132" y="399"/>
      <point x="132" y="427" type="curve" smooth="yes"/>
      <point x="132" y="450"/>
      <point x="115" y="469"/>
      <point x="89" y="469" type="curve" smooth="yes"/>
      <point x="62" y="469"/>
      <point x="46" y="449"/>
      <point x="46" y="417" type="curve" smooth="yes"/>
      <point x="46" y="375"/>
      <point x="87" y="340"/>
      <point x="159" y="340" type="curve" smooth="yes"/>
      <point x="244" y="340"/>
      <point x="295" y="373"/>
      <point x="295" y="441" type="curve" smooth="yes"/>
      <point x="295" y="510"/>
      <point x="237" y="534"/>
      <point x="179" y="538" type="curve"/>
    </contour>
  </outline>
</glyph>
<glyph name="uni00B5" format="1">
  <advance width="550"/>
  <unicode hex="00B5"/>
  <outline>
    <contour>
      <point x="225" y="-220" type="line"/>
      <point x="225" y="-201" type="line"/>
      <point x="182" y="-201"/>
      <point x="158" y="-179"/>
      <point x="158" y="-97" type="curve" smooth="yes"/>
      <point x="158" y="7" type="line"/>
      <point x="176" y="1"/>
      <point x="194" y="0"/>
      <point x="208" y="0" type="curve" smooth="yes"/>
      <point x="286" y="0"/>
      <point x="332" y="44"/>
      <point x="359" y="84" type="curve"/>
      <point x="361" y="84" type="line"/>
      <point x="359" y="14" type="line"/>
      <point x="368" y="0" type="line"/>
      <point x="479" y="0" type="line"/>
      <point x="479" y="490" type="line"/>
      <point x="359" y="490" type="line"/>
      <point x="359" y="145" type="line"/>
      <point x="347" y="93"/>
      <point x="304" y="43"/>
      <point x="259" y="43" type="curve" smooth="yes"/>
      <point x="242" y="43"/>
      <point x="192" y="46"/>
      <point x="192" y="147" type="curve" smooth="yes"/>
      <point x="192" y="490" type="line"/>
      <point x="72" y="490" type="line"/>
      <point x="72" y="-58" type="line" smooth="yes"/>
      <point x="72" y="-173"/>
      <point x="103" y="-220"/>
      <point x="174" y="-220" type="curve" smooth="yes"/>
    </contour>
  </outline>
</glyph>
<glyph name="ordmasculine" format="1">
  <advance width="428"/>
  <unicode hex="00BA"/>
  <outline>
    <contour>
      <point x="134" y="590"/>
      <point x="142" y="687"/>
      <point x="215" y="687" type="curve" smooth="yes"/>
      <point x="290" y="687"/>
      <point x="293" y="593"/>
      <point x="293" y="518" type="curve" smooth="yes"/>
      <point x="293" y="458"/>
      <point x="285" y="368"/>
      <point x="213" y="368" type="curve" smooth="yes"/>
      <point x="136" y="368"/>
      <point x="134" y="467"/>
      <point x="134" y="541" type="curve" smooth="yes"/>
    </contour>
    <contour>
      <point x="35" y="428"/>
      <point x="101" y="341"/>
      <point x="217" y="341" type="curve" smooth="yes"/>
      <point x="316" y="341"/>
      <point x="393" y="431"/>
      <point x="393" y="533" type="curve" smooth="yes"/>
      <point x="393" y="620"/>
      <point x="336" y="714"/>
      <point x="217" y="714" type="curve" smooth="yes"/>
      <point x="100" y="714"/>
      <point x="35" y="617"/>
      <point x="35" y="524" type="curve" smooth="yes"/>
    </contour>
  </outline>
</glyph>
<glyph name="onequarter" format="1">
  <advance width="584"/>
  <unicode hex="00BC"/>
  <outline>
    <contour>
      <point x="168" y="707" type="line"/>
      <point x="160" y="721" type="line"/>
      <point x="115" y="703" type="line"/>
      <point x="18" y="692" type="line"/>
      <point x="18" y="672" type="line"/>
      <point x="78" y="672" type="line"/>
      <point x="78" y="372" type="line"/>
      <point x="28" y="367" type="line"/>
      <point x="28" y="347" type="line"/>
      <point x="219" y="347" type="line"/>
      <point x="219" y="367" type="line"/>
      <point x="168" y="372" type="line"/>
    </contour>
    <contour>
      <point x="131" y="0" type="line"/>
      <point x="511" y="714" type="line"/>
      <point x="480" y="714" type="line"/>
      <point x="100" y="0" type="line"/>
    </contour>
    <contour>
      <point x="284" y="79" type="line"/>
      <point x="423" y="79" type="line"/>
      <point x="423" y="30" type="line"/>
      <point x="373" y="25" type="line"/>
      <point x="373" y="5" type="line"/>
      <point x="564" y="5" type="line"/>
      <point x="564" y="25" type="line"/>
      <point x="514" y="30" type="line"/>
      <point x="514" y="79" type="line"/>
      <point x="564" y="79" type="line"/>
      <point x="564" y="105" type="line"/>
      <point x="514" y="104" type="line"/>
      <point x="514" y="373" type="line"/>
      <point x="471" y="373" type="line"/>
      <point x="284" y="103" type="line"/>
    </contour>
    <contour>
      <point x="423" y="262" type="line"/>
      <point x="423" y="103" type="line"/>
      <point x="309" y="102" type="line"/>
      <point x="309" y="103" type="line"/>
      <point x="422" y="262" type="line"/>
    </contour>
  </outline>
</glyph>
<glyph name="onehalf" format="1">
  <advance width="624"/>
  <unicode hex="00BD"/>
  <outline>
    <contour>
      <point x="361" y="0" type="line"/>
      <point x="595" y="0" type="line"/>
      <point x="598" y="113" type="line"/>
      <point x="586" y="113" type="line"/>
      <point x="583" y="73"/>
      <point x="564" y="68"/>
      <point x="509" y="67" type="curve" smooth="yes"/>
      <point x="403" y="65" type="line"/>
      <point x="403" y="66" type="line"/>
      <point x="518" y="132"/>
      <point x="588" y="199"/>
      <point x="588" y="271" type="curve" smooth="yes"/>
      <point x="588" y="320"/>
      <point x="554" y="367"/>
      <point x="468" y="367" type="curve" smooth="yes"/>
      <point x="389" y="367"/>
      <point x="353" y="317"/>
      <point x="353" y="278" type="curve" smooth="yes"/>
      <point x="353" y="249"/>
      <point x="368" y="229"/>
      <point x="396" y="229" type="curve" smooth="yes"/>
      <point x="421" y="229"/>
      <point x="438" y="247"/>
      <point x="438" y="272" type="curve" smooth="yes"/>
      <point x="438" y="297"/>
      <point x="425" y="313"/>
      <point x="397" y="313" type="curve" smooth="yes"/>
      <point x="395" y="313"/>
      <point x="389" y="313"/>
      <point x="386" y="312" type="curve"/>
      <point x="386" y="313" type="line" smooth="yes"/>
      <point x="391" y="329"/>
      <point x="413" y="349"/>
      <point x="448" y="349" type="curve" smooth="yes"/>
      <point x="481" y="349"/>
      <point x="500" y="328"/>
      <point x="500" y="280" type="curve" smooth="yes"/>
      <point x="500" y="189"/>
      <point x="482" y="128"/>
      <point x="361" y="56" type="curve"/>
    </contour>
    <contour>
      <point x="168" y="707" type="line"/>
      <point x="160" y="721" type="line"/>
      <point x="115" y="703" type="line"/>
      <point x="18" y="692" type="line"/>
      <point x="18" y="672" type="line"/>
      <point x="78" y="672" type="line"/>
      <point x="78" y="372" type="line"/>
      <point x="28" y="367" type="line"/>
      <point x="28" y="347" type="line"/>
      <point x="219" y="347" type="line"/>
      <point x="219" y="367" type="line"/>
      <point x="168" y="372" type="line"/>
    </contour>
    <contour>
      <point x="131" y="0" type="line"/>
      <point x="511" y="714" type="line"/>
      <point x="480" y="714" type="line"/>
      <point x="100" y="0" type="line"/>
    </contour>
  </outline>
</glyph>
<glyph name="questiondown" format="1">
  <advance width="414"/>
  <unicode hex="00BF"/>
  <outline>
    <contour>
      <point x="128" y="225"/>
      <point x="239" y="313"/>
      <point x="239" y="405" type="curve" smooth="yes"/>
      <point x="239" y="420"/>
      <point x="236" y="435"/>
      <point x="229" y="450" type="curve"/>
      <point x="203" y="450" type="line"/>
      <point x="207" y="439"/>
      <point x="208" y="430"/>
      <point x="208" y="420" type="curve" smooth="yes"/>
      <point x="208" y="312"/>
      <point x="17" y="240"/>
      <point x="17" y="100" type="curve" smooth="yes"/>
      <point x="17" y="13"/>
      <point x="79" y="-66"/>
      <point x="204" y="-66" type="curve" smooth="yes"/>
      <point x="352" y="-66"/>
      <point x="405" y="21"/>
      <point x="405" y="83" type="curve" smooth="yes"/>
      <point x="405" y="118"/>
      <point x="381" y="149"/>
      <point x="341" y="149" type="curve" smooth="yes"/>
      <point x="302" y="149"/>
      <point x="277" y="123"/>
      <point x="277" y="87" type="curve" smooth="yes"/>
      <point x="277" y="49"/>
      <point x="298" y="28"/>
      <point x="340" y="28" type="curve" smooth="yes"/>
      <point x="347" y="28" type="line"/>
      <point x="347" y="25" type="line"/>
      <point x="341" y="2"/>
      <point x="296" y="-38"/>
      <point x="237" y="-38" type="curve" smooth="yes"/>
      <point x="169" y="-38"/>
      <point x="128" y="4"/>
      <point x="128" y="93" type="curve" smooth="yes"/>
    </contour>
    <contour>
      <point x="270" y="642"/>
      <point x="245" y="665"/>
      <point x="210" y="665" type="curve" smooth="yes"/>
      <point x="173" y="665"/>
      <point x="149" y="642"/>
      <point x="149" y="606" type="curve" smooth="yes"/>
      <point x="149" y="569"/>
      <point x="173" y="545"/>
      <point x="210" y="545" type="curve" smooth="yes"/>
      <point x="245" y="545"/>
      <point x="270" y="569"/>
      <point x="270" y="606" type="curve" smooth="yes"/>
    </contour>
  </outline>
</glyph>
<glyph name="Agrave" format="1">
  <advance width="604"/>
  <unicode hex="00C0"/>
  <outline>
    <contour>
      <point x="417" y="27" type="line"/>
      <point x="351" y="22" type="line"/>
      <point x="351" y="0" type="line"/>
      <point x="612" y="0" type="line"/>
      <point x="612" y="22" type="line"/>
      <point x="548" y="27" type="line"/>
      <point x="309" y="717" type="line"/>
      <point x="287" y="717" type="line"/>
      <point x="56" y="27" type="line"/>
      <point x="-3" y="22" type="line"/>
      <point x="-3" y="0" type="line"/>
      <point x="150" y="0" type="line"/>
      <point x="150" y="22" type="line"/>
      <point x="84" y="27" type="line"/>
      <point x="141" y="202" type="line"/>
      <point x="359" y="202" type="line"/>
    </contour>
    <contour>
      <point x="249" y="535" type="line"/>
      <point x="251" y="535" type="line"/>
      <point x="349" y="235" type="line"/>
      <point x="149" y="231" type="line"/>
    </contour>
    <contour>
      <point x="331" y="753" type="line"/>
      <point x="338" y="771" type="line"/>
      <point x="220" y="865" type="line"/>
      <point x="211" y="872"/>
      <point x="196" y="881"/>
      <point x="184" y="881" type="curve" smooth="yes"/>
      <point x="165" y="881"/>
      <point x="140" y="869"/>
      <point x="140" y="839" type="curve" smooth="yes"/>
      <point x="140" y="812"/>
      <point x="162" y="797"/>
      <point x="184" y="792" type="curve" smooth="yes"/>
    </contour>
  </outline>
</glyph>
<glyph name="Adieresis" format="1">
  <advance width="604"/>
  <unicode hex="00C4"/>
  <outline>
    <contour>
      <point x="417" y="27" type="line"/>
      <point x="351" y="22" type="line"/>
      <point x="351" y="0" type="line"/>
      <point x="612" y="0" type="line"/>
      <point x="612" y="22" type="line"/>
      <point x="548" y="27" type="line"/>
      <point x="309" y="717" type="line"/>
      <point x="287" y="717" type="line"/>
      <point x="56" y="27" type="line"/>
      <point x="-3" y="22" type="line"/>
      <point x="-3" y="0" type="line"/>
      <point x="150" y="0" type="line"/>
      <point x="150" y="22" type="line"/>
      <point x="84" y="27" type="line"/>
      <point x="141" y="202" type="line"/>
      <point x="359" y="202" type="line"/>
    </contour>
    <contour>
      <point x="249" y="535" type="line"/>
      <point x="251" y="535" type="line"/>
      <point x="349" y="235" type="line"/>
      <point x="149" y="231" type="line"/>
    </contour>
    <contour>
      <point x="149" y="797"/>
      <point x="172" y="768"/>
      <point x="208" y="768" type="curve" smooth="yes"/>
      <point x="245" y="768"/>
      <point x="269" y="797"/>
      <point x="269" y="833" type="curve" smooth="yes"/>
      <point x="269" y="870"/>
      <point x="245" y="899"/>
      <point x="208" y="899" type="curve" smooth="yes"/>
      <point x="172" y="899"/>
      <point x="149" y="870"/>
      <point x="149" y="833" type="curve" smooth="yes"/>
    </contour>
    <contour>
      <point x="325" y="797"/>
      <point x="348" y="768"/>
      <point x="384" y="768" type="curve" smooth="yes"/>
      <point x="421" y="768"/>
      <point x="444" y="797"/>
      <point x="444" y="833" type="curve" smooth="yes"/>
      <point x="444" y="870"/>
      <point x="421" y="899"/>
      <point x="384" y="899" type="curve" smooth="yes"/>
      <point x="348" y="899"/>
      <point x="325" y="870"/>
      <point x="325" y="833" type="curve" smooth="yes"/>
    </contour>
  </outline>
</glyph>
<glyph name="Aring" format="1">
  <advance width="604"/>
  <unicode hex="00C5"/>
  <outline>
    <contour>
      <point x="417" y="27" type="line"/>
      <point x="351" y="22" type="line"/>
      <point x="351" y="0" type="line"/>
      <point x="612" y="0" type="line"/>
      <point x="612" y="22" type="line"/>
      <point x="548" y="27" type="line"/>
      <point x="309" y="717" type="line"/>
      <point x="287" y="717" type="line"/>
      <point x="56" y="27" type="line"/>
      <point x="-3" y="22" type="line"/>
      <point x="-3" y="0" type="line"/>
      <point x="150" y="0" type="line"/>
      <point x="150" y="22" type="line"/>
      <point x="84" y="27" type="line"/>
      <point x="141" y="202" type="line"/>
      <point x="359" y="202" type="line"/>
    </contour>
    <contour>
      <point x="249" y="535" type="line"/>
      <point x="251" y="535" type="line"/>
      <point x="349" y="235" type="line"/>
      <point x="149" y="231" type="line"/>
    </contour>
    <contour>
      <point x="177" y="768"/>
      <point x="219" y="739"/>
      <point x="297" y="739" type="curve" smooth="yes"/>
      <point x="375" y="739"/>
      <point x="419" y="768"/>
      <point x="419" y="826" type="curve" smooth="yes"/>
      <point x="419" y="884"/>
      <point x="375" y="915"/>
      <point x="297" y="915" type="curve" smooth="yes"/>
      <point x="224" y="915"/>
      <point x="177" y="884"/>
      <point x="177" y="826" type="curve" smooth="yes"/>
    </contour>
    <contour>
      <point x="245" y="866"/>
      <point x="261" y="888"/>
      <point x="297" y="888" type="curve" smooth="yes"/>
      <point x="333" y="888"/>
      <point x="351" y="866"/>
      <point x="351" y="826" type="curve" smooth="yes"/>
      <point x="351" y="787"/>
      <point x="333" y="767"/>
      <point x="297" y="767" type="curve" smooth="yes"/>
      <point x="261" y="767"/>
      <point x="245" y="787"/>
      <point x="245" y="826" type="curve" smooth="yes"/>
    </contour>
  </outline>
</glyph>
<glyph name="AE" format="1">
  <advance width="905"/>
  <unicode hex="00C6"/>
  <outline>
    <contour>
      <point x="551" y="665" type="line"/>
      <point x="589" y="668"/>
      <point x="625" y="670"/>
      <point x="655" y="670" type="curve" smooth="yes"/>
      <point x="771" y="670"/>
      <point x="799" y="597"/>
      <point x="810" y="498" type="curve"/>
      <point x="837" y="498" type="line"/>
      <point x="837" y="697" type="line"/>
      <point x="275" y="697" type="line"/>
      <point x="275" y="675" type="line"/>
      <point x="337" y="675"/>
      <point x="360" y="657"/>
      <point x="360" y="624" type="curve" smooth="yes"/>
      <point x="360" y="594"/>
      <point x="341" y="552"/>
      <point x="311" y="498" type="curve" smooth="yes"/>
      <point x="42" y="27" type="line"/>
      <point x="-17" y="22" type="line"/>
      <point x="-17" y="0" type="line"/>
      <point x="139" y="0" type="line"/>
      <point x="139" y="22" type="line"/>
      <point x="73" y="27" type="line"/>
      <point x="173" y="202" type="line"/>
      <point x="426" y="202" type="line"/>
      <point x="426" y="27" type="line"/>
      <point x="351" y="22" type="line"/>
      <point x="351" y="0" type="line"/>
      <point x="852" y="0" type="line"/>
      <point x="852" y="199" type="line"/>
      <point x="836" y="199" type="line"/>
      <point x="825" y="100"/>
      <point x="791" y="27"/>
      <point x="675" y="27" type="curve" smooth="yes"/>
      <point x="639" y="27"/>
      <point x="589" y="29"/>
      <point x="551" y="32" type="curve"/>
      <point x="551" y="345" type="line"/>
      <point x="567" y="347"/>
      <point x="596" y="347"/>
      <point x="604" y="347" type="curve" smooth="yes"/>
      <point x="670" y="347"/>
      <point x="700" y="319"/>
      <point x="700" y="228" type="curve"/>
      <point x="727" y="228" type="line"/>
      <point x="727" y="490" type="line"/>
      <point x="700" y="490" type="line"/>
      <point x="700" y="399"/>
      <point x="670" y="374"/>
      <point x="604" y="374" type="curve" smooth="yes"/>
      <point x="591" y="374"/>
      <point x="566" y="374"/>
      <point x="551" y="375" type="curve"/>
    </contour>
    <contour>
      <point x="185" y="229" type="line"/>
      <point x="426" y="648" type="line"/>
      <point x="426" y="229" type="line"/>
    </contour>
  </outline>
</glyph>
<glyph name="Egrave" format="1">
  <advance width="591"/>
  <unicode hex="00C8"/>
  <outline>
    <contour>
      <point x="236" y="665" type="line"/>
      <point x="273" y="668"/>
      <point x="310" y="670"/>
      <point x="340" y="670" type="curve" smooth="yes"/>
      <point x="456" y="670"/>
      <point x="483" y="598"/>
      <point x="501" y="498" type="curve"/>
      <point x="521" y="498" type="line"/>
      <point x="517" y="697" type="line"/>
      <point x="36" y="697" type="line"/>
      <point x="36" y="675" type="line"/>
      <point x="111" y="670" type="line"/>
      <point x="111" y="27" type="line"/>
      <point x="36" y="22" type="line"/>
      <point x="36" y="0" type="line"/>
      <point x="537" y="0" type="line"/>
      <point x="542" y="199" type="line"/>
      <point x="521" y="199" type="line"/>
      <point x="500" y="88"/>
      <point x="476" y="27"/>
      <point x="360" y="27" type="curve" smooth="yes"/>
      <point x="324" y="27"/>
      <point x="273" y="29"/>
      <point x="236" y="32" type="curve"/>
      <point x="236" y="345" type="line"/>
      <point x="251" y="347"/>
      <point x="281" y="347"/>
      <point x="289" y="347" type="curve" smooth="yes"/>
      <point x="355" y="347"/>
      <point x="384" y="319"/>
      <point x="384" y="228" type="curve"/>
      <point x="411" y="228" type="line"/>
      <point x="411" y="490" type="line"/>
      <point x="384" y="490" type="line"/>
      <point x="384" y="399"/>
      <point x="355" y="374"/>
      <point x="289" y="374" type="curve" smooth="yes"/>
      <point x="276" y="374"/>
      <point x="250" y="374"/>
      <point x="236" y="375" type="curve"/>
    </contour>
    <contour>
      <point x="380" y="753" type="line"/>
      <point x="388" y="771" type="line"/>
      <point x="270" y="865" type="line"/>
      <point x="261" y="872"/>
      <point x="246" y="881"/>
      <point x="233" y="881" type="curve" smooth="yes"/>
      <point x="214" y="881"/>
      <point x="189" y="869"/>
      <point x="189" y="839" type="curve" smooth="yes"/>
      <point x="189" y="812"/>
      <point x="211" y="797"/>
      <point x="233" y="792" type="curve" smooth="yes"/>
    </contour>
  </outline>
</glyph>
<glyph name="Igrave" format="1">
  <advance width="347"/>
  <unicode hex="00CC"/>
  <outline>
    <contour>
      <point x="311" y="697" type="line"/>
      <point x="36" y="697" type="line"/>
      <point x="36" y="675" type="line"/>
      <point x="111" y="670" type="line"/>
      <point x="111" y="27" type="line"/>
      <point x="36" y="22" type="line"/>
      <point x="36" y="0" type="line"/>
      <point x="311" y="0" type="line"/>
      <point x="311" y="22" type="line"/>
      <point x="236" y="27" type="line"/>
      <point x="236" y="670" type="line"/>
      <point x="311" y="675" type="line"/>
    </contour>
    <contour>
      <point x="219" y="753" type="line"/>
      <point x="226" y="771" type="line"/>
      <point x="108" y="865" type="line"/>
      <point x="99" y="872"/>
      <point x="84" y="881"/>
      <point x="72" y="881" type="curve" smooth="yes"/>
      <point x="52" y="881"/>
      <point x="27" y="869"/>
      <point x="27" y="839" type="curve" smooth="yes"/>
      <point x="27" y="812"/>
      <point x="49" y="797"/>
      <point x="72" y="792" type="curve" smooth="yes"/>
    </contour>
  </outline>
</glyph>
<glyph name="Iacute" format="1">
  <advance width="347"/>
  <unicode hex="00CD"/>
  <outline>
    <contour>
      <point x="311" y="697" type="line"/>
      <point x="36" y="697" type="line"/>
      <point x="36" y="675" type="line"/>
      <point x="111" y="670" type="line"/>
      <point x="111" y="27" type="line"/>
      <point x="36" y="22" type="line"/>
      <point x="36" y="0" type="line"/>
      <point x="311" y="0" type="line"/>
      <point x="311" y="22" type="line"/>
      <point x="236" y="27" type="line"/>
      <point x="236" y="670" type="line"/>
      <point x="311" y="675" type="line"/>
    </contour>
    <contour>
      <point x="265" y="789" type="line" smooth="yes"/>
      <point x="288" y="793"/>
      <point x="309" y="813"/>
      <point x="309" y="836" type="curve" smooth="yes"/>
      <point x="309" y="865"/>
      <point x="286" y="878"/>
      <point x="267" y="878" type="curve" smooth="yes"/>
      <point x="254" y="878"/>
      <point x="238" y="868"/>
      <point x="229" y="861" type="curve"/>
      <point x="111" y="768" type="line"/>
      <point x="118" y="750" type="line"/>
    </contour>
  </outline>
</glyph>
<glyph name="Icircumflex" format="1">
  <advance width="347"/>
  <unicode hex="00CE"/>
  <outline>
    <contour>
      <point x="311" y="697" type="line"/>
      <point x="36" y="697" type="line"/>
      <point x="36" y="675" type="line"/>
      <point x="111" y="670" type="line"/>
      <point x="111" y="27" type="line"/>
      <point x="36" y="22" type="line"/>
      <point x="36" y="0" type="line"/>
      <point x="311" y="0" type="line"/>
      <point x="311" y="22" type="line"/>
      <point x="236" y="27" type="line"/>
      <point x="236" y="670" type="line"/>
      <point x="311" y="675" type="line"/>
    </contour>
    <contour>
      <point x="29" y="769" type="line"/>
      <point x="56" y="747" type="line"/>
      <point x="170" y="827" type="line"/>
      <point x="172" y="827" type="line"/>
      <point x="290" y="748" type="line"/>
      <point x="320" y="771" type="line"/>
      <point x="176" y="905" type="line"/>
      <point x="174" y="905" type="line"/>
    </contour>
  </outline>
</glyph>
<glyph name="Ntilde" format="1">
  <advance width="690"/>
  <unicode hex="00D1"/>
  <outline>
    <contour>
      <point x="138" y="500" type="line"/>
      <point x="139" y="500" type="line"/>
      <point x="558" y="-10" type="line"/>
      <point x="587" y="-10" type="line"/>
      <point x="582" y="670" type="line"/>
      <point x="657" y="675" type="line"/>
      <point x="657" y="697" type="line"/>
      <point x="477" y="697" type="line"/>
      <point x="477" y="675" type="line"/>
      <point x="551" y="670" type="line"/>
      <point x="558" y="189" type="line"/>
      <point x="557" y="189" type="line"/>
      <point x="138" y="697" type="line"/>
      <point x="34" y="697" type="line"/>
      <point x="34" y="675" type="line"/>
      <point x="108" y="670" type="line"/>
      <point x="114" y="27" type="line"/>
      <point x="39" y="22" type="line"/>
      <point x="39" y="0" type="line"/>
      <point x="219" y="0" type="line"/>
      <point x="219" y="22" type="line"/>
      <point x="145" y="27" type="line"/>
    </contour>
    <contour>
      <point x="329" y="825"/>
      <point x="342" y="781"/>
      <point x="401" y="781" type="curve" smooth="yes"/>
      <point x="446" y="781"/>
      <point x="488" y="815"/>
      <point x="502" y="889" type="curve"/>
      <point x="483" y="895" type="line"/>
      <point x="456" y="855"/>
      <point x="426" y="850"/>
      <point x="407" y="850" type="curve" smooth="yes"/>
      <point x="359" y="850"/>
      <point x="352" y="891"/>
      <point x="292" y="891" type="curve" smooth="yes"/>
      <point x="235" y="891"/>
      <point x="199" y="840"/>
      <point x="186" y="794" type="curve"/>
      <point x="204" y="786" type="line"/>
      <point x="230" y="819"/>
      <point x="259" y="825"/>
      <point x="283" y="825" type="curve" smooth="yes"/>
    </contour>
  </outline>
</glyph>
<glyph name="Ograve" format="1">
  <advance width="704"/>
  <unicode hex="00D2"/>
  <outline>
    <contour>
      <point x="178" y="590"/>
      <point x="261" y="687"/>
      <point x="354" y="687" type="curve" smooth="yes"/>
      <point x="458" y="687"/>
      <point x="526" y="583"/>
      <point x="526" y="358" type="curve" smooth="yes"/>
      <point x="526" y="151"/>
      <point x="462" y="10"/>
      <point x="351" y="10" type="curve" smooth="yes"/>
      <point x="237" y="10"/>
      <point x="178" y="168"/>
      <point x="178" y="357" type="curve" smooth="yes"/>
    </contour>
    <contour>
      <point x="47" y="131"/>
      <point x="160" y="-17"/>
      <point x="354" y="-17" type="curve" smooth="yes"/>
      <point x="561" y="-17"/>
      <point x="657" y="174"/>
      <point x="657" y="362" type="curve" smooth="yes"/>
      <point x="657" y="572"/>
      <point x="535" y="714"/>
      <point x="351" y="714" type="curve" smooth="yes"/>
      <point x="163" y="714"/>
      <point x="47" y="546"/>
      <point x="47" y="346" type="curve" smooth="yes"/>
    </contour>
    <contour>
      <point x="402" y="753" type="line"/>
      <point x="410" y="771" type="line"/>
      <point x="292" y="865" type="line"/>
      <point x="283" y="872"/>
      <point x="268" y="881"/>
      <point x="255" y="881" type="curve" smooth="yes"/>
      <point x="236" y="881"/>
      <point x="211" y="869"/>
      <point x="211" y="839" type="curve" smooth="yes"/>
      <point x="211" y="812"/>
      <point x="233" y="797"/>
      <point x="255" y="792" type="curve" smooth="yes"/>
    </contour>
  </outline>
</glyph>
<glyph name="Oacute" format="1">
  <advance width="704"/>
  <unicode hex="00D3"/>
  <outline>
    <contour>
      <point x="178" y="590"/>
      <point x="261" y="687"/>
      <point x="354" y="687" type="curve" smooth="yes"/>
      <point x="458" y="687"/>
      <point x="526" y="583"/>
      <point x="526" y="358" type="curve" smooth="yes"/>
      <point x="526" y="151"/>
      <point x="462" y="10"/>
      <point x="351" y="10" type="curve" smooth="yes"/>
      <point x="237" y="10"/>
      <point x="178" y="168"/>
      <point x="178" y="357" type="curve" smooth="yes"/>
    </contour>
    <contour>
      <point x="47" y="131"/>
      <point x="160" y="-17"/>
      <point x="354" y="-17" type="curve" smooth="yes"/>
      <point x="561" y="-17"/>
      <point x="657" y="174"/>
      <point x="657" y="362" type="curve" smooth="yes"/>
      <point x="657" y="572"/>
      <point x="535" y="714"/>
      <point x="351" y="714" type="curve" smooth="yes"/>
      <point x="163" y="714"/>
      <point x="47" y="546"/>
      <point x="47" y="346" type="curve" smooth="yes"/>
    </contour>
    <contour>
      <point x="449" y="789" type="line" smooth="yes"/>
      <point x="471" y="793"/>
      <point x="493" y="813"/>
      <point x="493" y="836" type="curve" smooth="yes"/>
      <point x="493" y="865"/>
      <point x="470" y="878"/>
      <point x="451" y="878" type="curve" smooth="yes"/>
      <point x="438" y="878"/>
      <point x="421" y="868"/>
      <point x="413" y="861" type="curve"/>
      <point x="294" y="768" type="line"/>
      <point x="302" y="750" type="line"/>
    </contour>
  </outline>
</glyph>
<glyph name="Otilde" format="1">
  <advance width="704"/>
  <unicode hex="00D5"/>
  <outline>
    <contour>
      <point x="178" y="590"/>
      <point x="261" y="687"/>
      <point x="354" y="687" type="curve" smooth="yes"/>
      <point x="458" y="687"/>
      <point x="526" y="583"/>
      <point x="526" y="358" type="curve" smooth="yes"/>
      <point x="526" y="151"/>
      <point x="462" y="10"/>
      <point x="351" y="10" type="curve" smooth="yes"/>
      <point x="237" y="10"/>
      <point x="178" y="168"/>
      <point x="178" y="357" type="curve" smooth="yes"/>
    </contour>
    <contour>
      <point x="47" y="131"/>
      <point x="160" y="-17"/>
      <point x="354" y="-17" type="curve" smooth="yes"/>
      <point x="561" y="-17"/>
      <point x="657" y="174"/>
      <point x="657" y="362" type="curve" smooth="yes"/>
      <point x="657" y="572"/>
      <point x="535" y="714"/>
      <point x="351" y="714" type="curve" smooth="yes"/>
      <point x="163" y="714"/>
      <point x="47" y="546"/>
      <point x="47" y="346" type="curve" smooth="yes"/>
    </contour>
    <contour>
      <point x="336" y="825"/>
      <point x="349" y="781"/>
      <point x="408" y="781" type="curve" smooth="yes"/>
      <point x="453" y="781"/>
      <point x="495" y="815"/>
      <point x="509" y="889" type="curve"/>
      <point x="490" y="895" type="line"/>
      <point x="463" y="855"/>
      <point x="433" y="850"/>
      <point x="414" y="850" type="curve" smooth="yes"/>
      <point x="366" y="850"/>
      <point x="358" y="891"/>
      <point x="299" y="891" type="curve" smooth="yes"/>
      <point x="242" y="891"/>
      <point x="206" y="840"/>
      <point x="193" y="794" type="curve"/>
      <point x="210" y="786" type="line"/>
      <point x="237" y="819"/>
      <point x="266" y="825"/>
      <point x="290" y="825" type="curve" smooth="yes"/>
    </contour>
  </outline>
</glyph>
<glyph name="Odieresis" format="1">
  <advance width="704"/>
  <unicode hex="00D6"/>
  <outline>
    <contour>
      <point x="178" y="590"/>
      <point x="261" y="687"/>
      <point x="354" y="687" type="curve" smooth="yes"/>
      <point x="458" y="687"/>
      <point x="526" y="583"/>
      <point x="526" y="358" type="curve" smooth="yes"/>
      <point x="526" y="151"/>
      <point x="462" y="10"/>
      <point x="351" y="10" type="curve" smooth="yes"/>
      <point x="237" y="10"/>
      <point x="178" y="168"/>
      <point x="178" y="357" type="curve" smooth="yes"/>
    </contour>
    <contour>
      <point x="47" y="131"/>
      <point x="160" y="-17"/>
      <point x="354" y="-17" type="curve" smooth="yes"/>
      <point x="561" y="-17"/>
      <point x="657" y="174"/>
      <point x="657" y="362" type="curve" smooth="yes"/>
      <point x="657" y="572"/>
      <point x="535" y="714"/>
      <point x="351" y="714" type="curve" smooth="yes"/>
      <point x="163" y="714"/>
      <point x="47" y="546"/>
      <point x="47" y="346" type="curve" smooth="yes"/>
    </contour>
    <contour>
      <point x="201" y="797"/>
      <point x="224" y="768"/>
      <point x="260" y="768" type="curve" smooth="yes"/>
      <point x="297" y="768"/>
      <point x="320" y="797"/>
      <point x="320" y="833" type="curve" smooth="yes"/>
      <point x="320" y="870"/>
      <point x="297" y="899"/>
      <point x="260" y="899" type="curve" smooth="yes"/>
      <point x="224" y="899"/>
      <point x="201" y="870"/>
      <point x="201" y="833" type="curve" smooth="yes"/>
    </contour>
    <contour>
      <point x="376" y="797"/>
      <point x="399" y="768"/>
      <point x="436" y="768" type="curve" smooth="yes"/>
      <point x="473" y="768"/>
      <point x="496" y="797"/>
      <point x="496" y="833" type="curve" smooth="yes"/>
      <point x="496" y="870"/>
      <point x="473" y="899"/>
      <point x="436" y="899" type="curve" smooth="yes"/>
      <point x="399" y="899"/>
      <point x="376" y="870"/>
      <point x="376" y="833" type="curve" smooth="yes"/>
    </contour>
  </outline>
</glyph>
<glyph name="multiply" format="1">
  <advance width="560"/>
  <unicode hex="00D7"/>
  <outline>
    <contour>
      <point x="241" y="316" type="line"/>
      <point x="57" y="147" type="line"/>
      <point x="93" y="109" type="line"/>
      <point x="278" y="281" type="line"/>
      <point x="466" y="104" type="line"/>
      <point x="502" y="144" type="line"/>
      <point x="317" y="317" type="line"/>
      <point x="502" y="489" type="line"/>
      <point x="471" y="527" type="line"/>
      <point x="280" y="352" type="line"/>
      <point x="93" y="528" type="line"/>
      <point x="57" y="489" type="line"/>
    </contour>
  </outline>
</glyph>
<glyph name="Thorn" format="1">
  <advance width="590"/>
  <unicode hex="00DE"/>
  <outline>
    <contour>
      <point x="311" y="697" type="line"/>
      <point x="36" y="697" type="line"/>
      <point x="36" y="675" type="line"/>
      <point x="111" y="670" type="line"/>
      <point x="111" y="27" type="line"/>
      <point x="36" y="22" type="line"/>
      <point x="36" y="0" type="line"/>
      <point x="311" y="0" type="line"/>
      <point x="311" y="22" type="line"/>
      <point x="236" y="27" type="line"/>
      <point x="236" y="148" type="line"/>
      <point x="247" y="148"/>
      <point x="258" y="147"/>
      <point x="267" y="147" type="curve" smooth="yes"/>
      <point x="421" y="147"/>
      <point x="560" y="208"/>
      <point x="560" y="369" type="curve" smooth="yes"/>
      <point x="560" y="509"/>
      <point x="439" y="566"/>
      <point x="300" y="566" type="curve" smooth="yes"/>
      <point x="236" y="566" type="line"/>
      <point x="236" y="670" type="line"/>
      <point x="311" y="675" type="line"/>
    </contour>
    <contour>
      <point x="259" y="174"/>
      <point x="247" y="175"/>
      <point x="236" y="176" type="curve"/>
      <point x="236" y="533" type="line"/>
      <point x="256" y="536"/>
      <point x="276" y="537"/>
      <point x="287" y="537" type="curve" smooth="yes"/>
      <point x="367" y="537"/>
      <point x="430" y="500"/>
      <point x="430" y="370" type="curve" smooth="yes"/>
      <point x="430" y="253"/>
      <point x="387" y="174"/>
      <point x="270" y="174" type="curve" smooth="yes"/>
    </contour>
  </outline>
</glyph>
<glyph name="germandbls" format="1">
  <advance width="608"/>
  <unicode hex="00DF"/>
  <outline>
    <contour>
      <point x="327" y="391" type="line"/>
      <point x="422" y="408"/>
      <point x="522" y="448"/>
      <point x="522" y="542" type="curve" smooth="yes"/>
      <point x="522" y="684"/>
      <point x="388" y="707"/>
      <point x="306" y="707" type="curve" smooth="yes"/>
      <point x="250" y="707"/>
      <point x="80" y="699"/>
      <point x="80" y="484" type="curve" smooth="yes"/>
      <point x="80" y="25" type="line"/>
      <point x="30" y="20" type="line"/>
      <point x="30" y="0" type="line"/>
      <point x="199" y="0" type="line"/>
      <point x="200" y="560" type="line" smooth="yes"/>
      <point x="200" y="613"/>
      <point x="218" y="685"/>
      <point x="306" y="685" type="curve" smooth="yes"/>
      <point x="352" y="685"/>
      <point x="408" y="666"/>
      <point x="408" y="540" type="curve" smooth="yes"/>
      <point x="408" y="437"/>
      <point x="331" y="398"/>
      <point x="295" y="398" type="curve" smooth="yes"/>
      <point x="273" y="398" type="line"/>
      <point x="273" y="375" type="line"/>
      <point x="295" y="375" type="line" smooth="yes"/>
      <point x="377" y="375"/>
      <point x="449" y="358"/>
      <point x="449" y="149" type="curve" smooth="yes"/>
      <point x="449" y="66"/>
      <point x="420" y="8"/>
      <point x="363" y="8" type="curve" smooth="yes"/>
      <point x="323" y="8"/>
      <point x="291" y="29"/>
      <point x="284" y="56" type="curve" smooth="yes"/>
      <point x="284" y="57" type="line"/>
      <point x="290" y="56"/>
      <point x="295" y="55"/>
      <point x="300" y="55" type="curve" smooth="yes"/>
      <point x="334" y="55"/>
      <point x="357" y="78"/>
      <point x="357" y="113" type="curve"/>
      <point x="356" y="145"/>
      <point x="335" y="170"/>
      <point x="299" y="170" type="curve" smooth="yes"/>
      <point x="259" y="170"/>
      <point x="235" y="136"/>
      <point x="235" y="99" type="curve" smooth="yes"/>
      <point x="235" y="16"/>
      <point x="303" y="-15"/>
      <point x="376" y="-15" type="curve" smooth="yes"/>
      <point x="530" y="-15"/>
      <point x="571" y="100"/>
      <point x="571" y="179" type="curve" smooth="yes"/>
      <point x="571" y="350"/>
      <point x="451" y="390"/>
      <point x="346" y="390" type="curve" smooth="yes"/>
      <point x="340" y="390"/>
      <point x="333" y="390"/>
      <point x="327" y="390" type="curve"/>
    </contour>
  </outline>
</glyph>
<glyph name="agrave" format="1">
  <advance width="491"/>
  <unicode hex="00E0"/>
  <outline>
    <contour>
      <point x="153" y="149"/>
      <point x="161" y="242"/>
      <point x="267" y="242" type="curve" smooth="yes"/>
      <point x="276" y="242"/>
      <point x="287" y="241"/>
      <point x="298" y="239" type="curve"/>
      <point x="298" y="172" type="line" smooth="yes"/>
      <point x="298" y="89"/>
      <point x="253" y="29"/>
      <point x="211" y="29" type="curve" smooth="yes"/>
      <point x="172" y="29"/>
      <point x="153" y="67"/>
      <point x="153" y="116" type="curve" smooth="yes"/>
    </contour>
    <contour>
      <point x="299" y="77" type="line"/>
      <point x="313" y="0" type="line"/>
      <point x="468" y="0" type="line"/>
      <point x="468" y="20" type="line"/>
      <point x="418" y="25" type="line"/>
      <point x="418" y="288" type="line" smooth="yes"/>
      <point x="418" y="422"/>
      <point x="395" y="505"/>
      <point x="229" y="505" type="curve" smooth="yes"/>
      <point x="141" y="505"/>
      <point x="54" y="450"/>
      <point x="54" y="370" type="curve" smooth="yes"/>
      <point x="54" y="337"/>
      <point x="76" y="305"/>
      <point x="116" y="305" type="curve" smooth="yes"/>
      <point x="152" y="305"/>
      <point x="178" y="331"/>
      <point x="178" y="365" type="curve" smooth="yes"/>
      <point x="178" y="405"/>
      <point x="156" y="425"/>
      <point x="123" y="425" type="curve" smooth="yes"/>
      <point x="118" y="425"/>
      <point x="113" y="425"/>
      <point x="108" y="424" type="curve"/>
      <point x="108" y="426" type="line"/>
      <point x="120" y="447"/>
      <point x="149" y="482"/>
      <point x="212" y="482" type="curve" smooth="yes"/>
      <point x="292" y="482"/>
      <point x="298" y="422"/>
      <point x="298" y="329" type="curve" smooth="yes"/>
      <point x="298" y="262" type="line"/>
      <point x="282" y="263"/>
      <point x="267" y="264"/>
      <point x="253" y="264" type="curve" smooth="yes"/>
      <point x="99" y="264"/>
      <point x="35" y="184"/>
      <point x="35" y="106" type="curve" smooth="yes"/>
      <point x="35" y="46"/>
      <point x="73" y="-15"/>
      <point x="158" y="-15" type="curve" smooth="yes"/>
      <point x="224" y="-15"/>
      <point x="267" y="17"/>
      <point x="298" y="77" type="curve"/>
    </contour>
    <contour>
      <point x="255" y="571" type="line"/>
      <point x="273" y="583" type="line"/>
      <point x="219" y="739" type="line"/>
      <point x="213" y="757"/>
      <point x="196" y="772"/>
      <point x="175" y="772" type="curve" smooth="yes"/>
      <point x="150" y="772"/>
      <point x="131" y="752"/>
      <point x="131" y="727" type="curve" smooth="yes"/>
      <point x="131" y="712"/>
      <point x="137" y="698"/>
      <point x="146" y="688" type="curve" smooth="yes"/>
    </contour>
  </outline>
</glyph>
<glyph name="acircumflex" format="1">
  <advance width="491"/>
  <unicode hex="00E2"/>
  <outline>
    <contour>
      <point x="153" y="149"/>
      <point x="161" y="242"/>
      <point x="267" y="242" type="curve" smooth="yes"/>
      <point x="276" y="242"/>
      <point x="287" y="241"/>
      <point x="298" y="239" type="curve"/>
      <point x="298" y="172" type="line" smooth="yes"/>
      <point x="298" y="89"/>
      <point x="253" y="29"/>
      <point x="211" y="29" type="curve" smooth="yes"/>
      <point x="172" y="29"/>
      <point x="153" y="67"/>
      <point x="153" y="116" type="curve" smooth="yes"/>
    </contour>
    <contour>
      <point x="299" y="77" type="line"/>
      <point x="313" y="0" type="line"/>
      <point x="468" y="0" type="line"/>
      <point x="468" y="20" type="line"/>
      <point x="418" y="25" type="line"/>
      <point x="418" y="288" type="line" smooth="yes"/>
      <point x="418" y="422"/>
      <point x="395" y="505"/>
      <point x="229" y="505" type="curve" smooth="yes"/>
      <point x="141" y="505"/>
      <point x="54" y="450"/>
      <point x="54" y="370" type="curve" smooth="yes"/>
      <point x="54" y="337"/>
      <point x="76" y="305"/>
      <point x="116" y="305" type="curve" smooth="yes"/>
      <point x="152" y="305"/>
      <point x="178" y="331"/>
      <point x="178" y="365" type="curve" smooth="yes"/>
      <point x="178" y="405"/>
      <point x="156" y="425"/>
      <point x="123" y="425" type="curve" smooth="yes"/>
      <point x="118" y="425"/>
      <point x="113" y="425"/>
      <point x="108" y="424" type="curve"/>
      <point x="108" y="426" type="line"/>
      <point x="120" y="447"/>
      <point x="149" y="482"/>
      <point x="212" y="482" type="curve" smooth="yes"/>
      <point x="292" y="482"/>
      <point x="298" y="422"/>
      <point x="298" y="329" type="curve" smooth="yes"/>
      <point x="298" y="262" type="line"/>
      <point x="282" y="263"/>
      <point x="267" y="264"/>
      <point x="253" y="264" type="curve" smooth="yes"/>
      <point x="99" y="264"/>
      <point x="35" y="184"/>
      <point x="35" y="106" type="curve" smooth="yes"/>
      <point x="35" y="46"/>
      <point x="73" y="-15"/>
      <point x="158" y="-15" type="curve" smooth="yes"/>
      <point x="224" y="-15"/>
      <point x="267" y="17"/>
      <point x="298" y="77" type="curve"/>
    </contour>
    <contour>
      <point x="240" y="774" type="line"/>
      <point x="110" y="590" type="line"/>
      <point x="147" y="570" type="line"/>
      <point x="234" y="673" type="line"/>
      <point x="236" y="673" type="line"/>
      <point x="317" y="570" type="line"/>
      <point x="357" y="592" type="line"/>
      <point x="243" y="774" type="line"/>
    </contour>
  </outline>
</glyph>
<glyph name="atilde" format="1">
  <advance width="491"/>
  <unicode hex="00E3"/>
  <outline>
    <contour>
      <point x="153" y="149"/>
      <point x="161" y="242"/>
      <point x="267" y="242" type="curve" smooth="yes"/>
      <point x="276" y="242"/>
      <point x="287" y="241"/>
      <point x="298" y="239" type="curve"/>
      <point x="298" y="172" type="line" smooth="yes"/>
      <point x="298" y="89"/>
      <point x="253" y="29"/>
      <point x="211" y="29" type="curve" smooth="yes"/>
      <point x="172" y="29"/>
      <point x="153" y="67"/>
      <point x="153" y="116" type="curve" smooth="yes"/>
    </contour>
    <contour>
      <point x="299" y="77" type="line"/>
      <point x="313" y="0" type="line"/>
      <point x="468" y="0" type="line"/>
      <point x="468" y="20" type="line"/>
      <point x="418" y="25" type="line"/>
      <point x="418" y="288" type="line" smooth="yes"/>
      <point x="418" y="422"/>
      <point x="395" y="505"/>
      <point x="229" y="505" type="curve" smooth="yes"/>
      <point x="141" y="505"/>
      <point x="54" y="450"/>
      <point x="54" y="370" type="curve" smooth="yes"/>
      <point x="54" y="337"/>
      <point x="76" y="305"/>
      <point x="116" y="305" type="curve" smooth="yes"/>
      <point x="152" y="305"/>
      <point x="178" y="331"/>
      <point x="178" y="365" type="curve" smooth="yes"/>
      <point x="178" y="405"/>
      <point x="156" y="425"/>
      <point x="123" y="425" type="curve" smooth="yes"/>
      <point x="118" y="425"/>
      <point x="113" y="425"/>
      <point x="108" y="424" type="curve"/>
      <point x="108" y="426" type="line"/>
      <point x="120" y="447"/>
      <point x="149" y="482"/>
      <point x="212" y="482" type="curve" smooth="yes"/>
      <point x="292" y="482"/>
      <point x="298" y="422"/>
      <point x="298" y="329" type="curve" smooth="yes"/>
      <point x="298" y="262" type="line"/>
      <point x="282" y="263"/>
      <point x="267" y="264"/>
      <point x="253" y="264" type="curve" smooth="yes"/>
      <point x="99" y="264"/>
      <point x="35" y="184"/>
      <point x="35" y="106" type="curve" smooth="yes"/>
      <point x="35" y="46"/>
      <point x="73" y="-15"/>
      <point x="158" y="-15" type="curve" smooth="yes"/>
      <point x="224" y="-15"/>
      <point x="267" y="17"/>
      <point x="298" y="77" type="curve"/>
    </contour>
    <contour>
      <point x="221" y="662"/>
      <point x="234" y="617"/>
      <point x="293" y="617" type="curve" smooth="yes"/>
      <point x="338" y="617"/>
      <point x="380" y="651"/>
      <point x="394" y="725" type="curve"/>
      <point x="375" y="731" type="line"/>
      <point x="348" y="691"/>
      <point x="318" y="687"/>
      <point x="299" y="687" type="curve" smooth="yes"/>
      <point x="251" y="687"/>
      <point x="244" y="728"/>
      <point x="185" y="728" type="curve" smooth="yes"/>
      <point x="127" y="728"/>
      <point x="91" y="677"/>
      <point x="78" y="630" type="curve"/>
      <point x="96" y="623" type="line"/>
      <point x="122" y="655"/>
      <point x="151" y="662"/>
      <point x="175" y="662" type="curve" smooth="yes"/>
    </contour>
  </outline>
</glyph>
<glyph name="ae" format="1">
  <advance width="726"/>
  <unicode hex="00E6"/>
  <outline>
    <contour>
      <point x="330" y="110" type="line"/>
      <point x="359" y="33"/>
      <point x="416" y="-15"/>
      <point x="516" y="-15" type="curve" smooth="yes"/>
      <point x="575" y="-15"/>
      <point x="646" y="12"/>
      <point x="693" y="91" type="curve"/>
      <point x="674" y="103" type="line"/>
      <point x="630" y="29"/>
      <point x="579" y="17"/>
      <point x="539" y="17" type="curve" smooth="yes"/>
      <point x="470" y="17"/>
      <point x="424" y="68"/>
      <point x="424" y="202" type="curve" smooth="yes"/>
      <point x="424" y="260" type="line"/>
      <point x="666" y="260" type="line"/>
      <point x="679" y="272" type="line"/>
      <point x="679" y="429"/>
      <point x="623" y="505"/>
      <point x="510" y="505" type="curve" smooth="yes"/>
      <point x="461" y="505"/>
      <point x="413" y="491"/>
      <point x="369" y="430" type="curve"/>
      <point x="368" y="430" type="line"/>
      <point x="343" y="490"/>
      <point x="290" y="505"/>
      <point x="230" y="505" type="curve" smooth="yes"/>
      <point x="142" y="505"/>
      <point x="50" y="450"/>
      <point x="50" y="370" type="curve" smooth="yes"/>
      <point x="50" y="337"/>
      <point x="72" y="305"/>
      <point x="112" y="305" type="curve" smooth="yes"/>
      <point x="148" y="305"/>
      <point x="174" y="331"/>
      <point x="174" y="364" type="curve" smooth="yes"/>
      <point x="174" y="404"/>
      <point x="152" y="425"/>
      <point x="119" y="425" type="curve" smooth="yes"/>
      <point x="114" y="425"/>
      <point x="109" y="425"/>
      <point x="104" y="424" type="curve"/>
      <point x="104" y="426" type="line"/>
      <point x="116" y="447"/>
      <point x="150" y="482"/>
      <point x="213" y="482" type="curve" smooth="yes"/>
      <point x="293" y="482"/>
      <point x="309" y="422"/>
      <point x="309" y="329" type="curve" smooth="yes"/>
      <point x="309" y="262" type="line"/>
      <point x="293" y="263"/>
      <point x="278" y="264"/>
      <point x="264" y="264" type="curve" smooth="yes"/>
      <point x="108" y="264"/>
      <point x="36" y="184"/>
      <point x="36" y="106" type="curve" smooth="yes"/>
      <point x="36" y="46"/>
      <point x="74" y="-15"/>
      <point x="159" y="-15" type="curve" smooth="yes"/>
      <point x="221" y="-15"/>
      <point x="282" y="4"/>
      <point x="329" y="110" type="curve"/>
    </contour>
    <contour>
      <point x="154" y="149"/>
      <point x="170" y="242"/>
      <point x="277" y="242" type="curve" smooth="yes"/>
      <point x="287" y="242"/>
      <point x="297" y="241"/>
      <point x="309" y="239" type="curve"/>
      <point x="309" y="172" type="line" smooth="yes"/>
      <point x="309" y="89"/>
      <point x="259" y="30"/>
      <point x="217" y="30" type="curve" smooth="yes"/>
      <point x="178" y="30"/>
      <point x="154" y="67"/>
      <point x="154" y="116" type="curve" smooth="yes"/>
    </contour>
    <contour>
      <point x="554" y="483"/>
      <point x="575" y="420"/>
      <point x="575" y="328" type="curve" smooth="yes"/>
      <point x="575" y="315"/>
      <point x="575" y="302"/>
      <point x="574" y="288" type="curve"/>
      <point x="424" y="282" type="line"/>
      <point x="428" y="400"/>
      <point x="448" y="483"/>
      <point x="506" y="483" type="curve" smooth="yes"/>
    </contour>
  </outline>
</glyph>
<glyph name="egrave" format="1">
  <advance width="479"/>
  <unicode hex="00E8"/>
  <outline>
    <contour>
      <point x="438" y="272" type="line"/>
      <point x="438" y="405"/>
      <point x="388" y="505"/>
      <point x="249" y="505" type="curve" smooth="yes"/>
      <point x="101" y="505"/>
      <point x="40" y="368"/>
      <point x="40" y="245" type="curve" smooth="yes"/>
      <point x="40" y="90"/>
      <point x="108" y="-15"/>
      <point x="263" y="-15" type="curve" smooth="yes"/>
      <point x="327" y="-15"/>
      <point x="395" y="12"/>
      <point x="442" y="91" type="curve"/>
      <point x="423" y="103" type="line"/>
      <point x="379" y="29"/>
      <point x="326" y="17"/>
      <point x="286" y="17" type="curve" smooth="yes"/>
      <point x="213" y="17"/>
      <point x="165" y="75"/>
      <point x="165" y="230" type="curve" smooth="yes"/>
      <point x="165" y="260" type="line"/>
      <point x="424" y="260" type="line"/>
    </contour>
    <contour>
      <point x="306" y="483"/>
      <point x="324" y="424"/>
      <point x="324" y="336" type="curve" smooth="yes"/>
      <point x="324" y="321"/>
      <point x="323" y="305"/>
      <point x="322" y="288" type="curve"/>
      <point x="165" y="282" type="line"/>
      <point x="168" y="393"/>
      <point x="186" y="483"/>
      <point x="251" y="483" type="curve" smooth="yes"/>
    </contour>
    <contour>
      <point x="277" y="571" type="line"/>
      <point x="295" y="583" type="line"/>
      <point x="241" y="739" type="line"/>
      <point x="235" y="757"/>
      <point x="218" y="772"/>
      <point x="197" y="772" type="curve" smooth="yes"/>
      <point x="172" y="772"/>
      <point x="154" y="752"/>
      <point x="154" y="727" type="curve" smooth="yes"/>
      <point x="154" y="712"/>
      <point x="159" y="698"/>
      <point x="168" y="688" type="curve" smooth="yes"/>
    </contour>
  </outline>
</glyph>
<glyph name="ograve" format="1">
  <advance width="523"/>
  <unicode hex="00F2"/>
  <outline>
    <contour>
      <point x="132" y="505"/>
      <point x="39" y="391"/>
      <point x="39" y="242" type="curve" smooth="yes"/>
      <point x="39" y="103"/>
      <point x="106" y="-15"/>
      <point x="263" y="-15" type="curve" smooth="yes"/>
      <point x="396" y="-15"/>
      <point x="484" y="101"/>
      <point x="484" y="245" type="curve" smooth="yes"/>
      <point x="484" y="375"/>
      <point x="413" y="505"/>
      <point x="264" y="505" type="curve" smooth="yes"/>
    </contour>
    <contour>
      <point x="190" y="7"/>
      <point x="164" y="108"/>
      <point x="164" y="248" type="curve" smooth="yes"/>
      <point x="164" y="383"/>
      <point x="190" y="483"/>
      <point x="261" y="483" type="curve" smooth="yes"/>
      <point x="337" y="483"/>
      <point x="359" y="393"/>
      <point x="359" y="242" type="curve" smooth="yes"/>
      <point x="359" y="107"/>
      <point x="334" y="7"/>
      <point x="261" y="7" type="curve" smooth="yes"/>
    </contour>
    <contour>
      <point x="288" y="571" type="line"/>
      <point x="306" y="583" type="line"/>
      <point x="252" y="739" type="line"/>
      <point x="246" y="757"/>
      <point x="229" y="772"/>
      <point x="208" y="772" type="curve" smooth="yes"/>
      <point x="183" y="772"/>
      <point x="165" y="752"/>
      <point x="165" y="727" type="curve" smooth="yes"/>
      <point x="165" y="712"/>
      <point x="170" y="698"/>
      <point x="179" y="688" type="curve" smooth="yes"/>
    </contour>
  </outline>
</glyph>
<glyph name="oacute" format="1">
  <advance width="523"/>
  <unicode hex="00F3"/>
  <outline>
    <contour>
      <point x="132" y="505"/>
      <point x="39" y="391"/>
      <point x="39" y="242" type="curve" smooth="yes"/>
      <point x="39" y="103"/>
      <point x="106" y="-15"/>
      <point x="263" y="-15" type="curve" smooth="yes"/>
      <point x="396" y="-15"/>
      <point x="484" y="101"/>
      <point x="484" y="245" type="curve" smooth="yes"/>
      <point x="484" y="375"/>
      <point x="413" y="505"/>
      <point x="264" y="505" type="curve" smooth="yes"/>
    </contour>
    <contour>
      <point x="190" y="7"/>
      <point x="164" y="108"/>
      <point x="164" y="248" type="curve" smooth="yes"/>
      <point x="164" y="383"/>
      <point x="190" y="483"/>
      <point x="261" y="483" type="curve" smooth="yes"/>
      <point x="337" y="483"/>
      <point x="359" y="393"/>
      <point x="359" y="242" type="curve" smooth="yes"/>
      <point x="359" y="107"/>
      <point x="334" y="7"/>
      <point x="261" y="7" type="curve" smooth="yes"/>
    </contour>
    <contour>
      <point x="349" y="682" type="line" smooth="yes"/>
      <point x="358" y="691"/>
      <point x="364" y="706"/>
      <point x="364" y="721" type="curve" smooth="yes"/>
      <point x="364" y="746"/>
      <point x="344" y="766"/>
      <point x="320" y="766" type="curve" smooth="yes"/>
      <point x="299" y="766"/>
      <point x="282" y="751"/>
      <point x="276" y="732" type="curve"/>
      <point x="222" y="577" type="line"/>
      <point x="240" y="564" type="line"/>
    </contour>
  </outline>
</glyph>
<glyph name="otilde" format="1">
  <advance width="523"/>
  <unicode hex="00F5"/>
  <outline>
    <contour>
      <point x="132" y="505"/>
      <point x="39" y="391"/>
      <point x="39" y="242" type="curve" smooth="yes"/>
      <point x="39" y="103"/>
      <point x="106" y="-15"/>
      <point x="263" y="-15" type="curve" smooth="yes"/>
      <point x="396" y="-15"/>
      <point x="484" y="101"/>
      <point x="484" y="245" type="curve" smooth="yes"/>
      <point x="484" y="375"/>
      <point x="413" y="505"/>
      <point x="264" y="505" type="curve" smooth="yes"/>
    </contour>
    <contour>
      <point x="190" y="7"/>
      <point x="164" y="108"/>
      <point x="164" y="248" type="curve" smooth="yes"/>
      <point x="164" y="383"/>
      <point x="190" y="483"/>
      <point x="261" y="483" type="curve" smooth="yes"/>
      <point x="337" y="483"/>
      <point x="359" y="393"/>
      <point x="359" y="242" type="curve" smooth="yes"/>
      <point x="359" y="107"/>
      <point x="334" y="7"/>
      <point x="261" y="7" type="curve" smooth="yes"/>
    </contour>
    <contour>
      <point x="250" y="662"/>
      <point x="263" y="617"/>
      <point x="322" y="617" type="curve" smooth="yes"/>
      <point x="366" y="617"/>
      <point x="409" y="651"/>
      <point x="422" y="725" type="curve"/>
      <point x="403" y="731" type="line"/>
      <point x="376" y="691"/>
      <point x="346" y="687"/>
      <point x="328" y="687" type="curve" smooth="yes"/>
      <point x="279" y="687"/>
      <point x="272" y="728"/>
      <point x="213" y="728" type="curve" smooth="yes"/>
      <point x="155" y="728"/>
      <point x="119" y="677"/>
      <point x="106" y="630" type="curve"/>
      <point x="124" y="623" type="line"/>
      <point x="150" y="655"/>
      <point x="180" y="662"/>
      <point x="203" y="662" type="curve" smooth="yes"/>
    </contour>
  </outline>
</glyph>
<glyph name="divide" format="1">
  <advance width="560"/>
  <unicode hex="00F7"/>
  <outline>
    <contour>
      <point x="212" y="72"/>
      <point x="240" y="45"/>
      <point x="280" y="45" type="curve" smooth="yes"/>
      <point x="321" y="45"/>
      <point x="347" y="72"/>
      <point x="347" y="111" type="curve" smooth="yes"/>
      <point x="347" y="152"/>
      <point x="321" y="180"/>
      <point x="280" y="180" type="curve" smooth="yes"/>
      <point x="240" y="180"/>
      <point x="212" y="152"/>
      <point x="212" y="111" type="curve" smooth="yes"/>
    </contour>
    <contour>
      <point x="212" y="459"/>
      <point x="240" y="433"/>
      <point x="280" y="433" type="curve" smooth="yes"/>
      <point x="321" y="433"/>
      <point x="347" y="459"/>
      <point x="347" y="499" type="curve" smooth="yes"/>
      <point x="347" y="540"/>
      <point x="321" y="567"/>
      <point x="280" y="567" type="curve" smooth="yes"/>
      <point x="240" y="567"/>
      <point x="212" y="540"/>
      <point x="212" y="499" type="curve" smooth="yes"/>
    </contour>
    <contour>
      <point x="57" y="340" type="line"/>
      <point x="57" y="286" type="line"/>
      <point x="502" y="286" type="line"/>
      <point x="502" y="340" type="line"/>
    </contour>
  </outline>
</glyph>
<glyph name="Lslash" format="1">
  <advance width="569"/>
  <unicode hex="0141"/>
  <outline>
    <contour>
      <point x="-5" y="219" type="line"/>
      <point x="433" y="419" type="line"/>
      <point x="419" y="461" type="line"/>
      <point x="-18" y="261" type="line"/>
    </contour>
    <component base="L"/>
  </outline>
</glyph>
<glyph name="lslash" format="1">
  <advance width="306"/>
  <unicode hex="0142"/>
  <outline>
    <contour>
      <point x="12" y="224" type="line"/>
      <point x="306" y="462" type="line"/>
      <point x="286" y="481" type="line"/>
      <point x="-8" y="243" type="line"/>
    </contour>
    <component base="l" xOffset="8"/>
  </outline>
</glyph>
<glyph name="OE" format="1">
  <advance width="983"/>
  <unicode hex="0152"/>
  <outline>
    <contour>
      <point x="627" y="665" type="line"/>
      <point x="665" y="668"/>
      <point x="703" y="670"/>
      <point x="733" y="670" type="curve" smooth="yes"/>
      <point x="849" y="670"/>
      <point x="877" y="597"/>
      <point x="888" y="498" type="curve"/>
      <point x="915" y="498" type="line"/>
      <point x="915" y="697" type="line"/>
      <point x="502" y="697" type="line"/>
      <point x="457" y="705"/>
      <point x="414" y="714"/>
      <point x="361" y="714" type="curve" smooth="yes"/>
      <point x="135" y="714"/>
      <point x="47" y="503"/>
      <point x="47" y="336" type="curve" smooth="yes"/>
      <point x="47" y="158"/>
      <point x="117" y="-17"/>
      <point x="372" y="-17" type="curve" smooth="yes"/>
      <point x="406" y="-17"/>
      <point x="448" y="-16"/>
      <point x="502" y="0" type="curve"/>
      <point x="930" y="0" type="line"/>
      <point x="930" y="199" type="line"/>
      <point x="914" y="199" type="line"/>
      <point x="903" y="100"/>
      <point x="869" y="27"/>
      <point x="753" y="27" type="curve" smooth="yes"/>
      <point x="717" y="27"/>
      <point x="665" y="29"/>
      <point x="627" y="32" type="curve"/>
      <point x="627" y="345" type="line"/>
      <point x="643" y="347"/>
      <point x="674" y="347"/>
      <point x="682" y="347" type="curve" smooth="yes"/>
      <point x="748" y="347"/>
      <point x="777" y="319"/>
      <point x="777" y="228" type="curve"/>
      <point x="804" y="228" type="line"/>
      <point x="804" y="490" type="line"/>
      <point x="777" y="490" type="line"/>
      <point x="777" y="399"/>
      <point x="748" y="374"/>
      <point x="682" y="374" type="curve" smooth="yes"/>
      <point x="669" y="374"/>
      <point x="643" y="374"/>
      <point x="627" y="375" type="curve"/>
    </contour>
    <contour>
      <point x="252" y="13"/>
      <point x="177" y="150"/>
      <point x="177" y="350" type="curve" smooth="yes"/>
      <point x="177" y="541"/>
      <point x="252" y="683"/>
      <point x="393" y="683" type="curve" smooth="yes"/>
      <point x="441" y="683"/>
      <point x="481" y="674"/>
      <point x="502" y="663" type="curve"/>
      <point x="502" y="31" type="line"/>
      <point x="464" y="16"/>
      <point x="439" y="13"/>
      <point x="396" y="13" type="curve" smooth="yes"/>
    </contour>
  </outline>
</glyph>
<glyph name="florin" format="1">
  <advance width="323"/>
  <unicode hex="0192"/>
  <outline>
    <contour>
      <point x="206" y="604" type="line" smooth="yes"/>
      <point x="206" y="638"/>
      <point x="211" y="685"/>
      <point x="249" y="685" type="curve" smooth="yes"/>
      <point x="262" y="685"/>
      <point x="272" y="679"/>
      <point x="274" y="673" type="curve"/>
      <point x="274" y="671" type="line"/>
      <point x="260" y="662"/>
      <point x="253" y="637"/>
      <point x="253" y="623" type="curve" smooth="yes"/>
      <point x="253" y="596"/>
      <point x="272" y="567"/>
      <point x="308" y="567" type="curve" smooth="yes"/>
      <point x="344" y="567"/>
      <point x="365" y="594"/>
      <point x="365" y="625" type="curve" smooth="yes"/>
      <point x="365" y="671"/>
      <point x="327" y="707"/>
      <point x="255" y="707" type="curve" smooth="yes"/>
      <point x="210" y="707"/>
      <point x="95" y="699"/>
      <point x="92" y="490" type="curve"/>
      <point x="2" y="490" type="line"/>
      <point x="2" y="469" type="line"/>
      <point x="92" y="466" type="line"/>
      <point x="92" y="-139" type="line" smooth="yes"/>
      <point x="92" y="-173"/>
      <point x="87" y="-220"/>
      <point x="49" y="-220" type="curve" smooth="yes"/>
      <point x="36" y="-220"/>
      <point x="26" y="-214"/>
      <point x="24" y="-208" type="curve"/>
      <point x="24" y="-206" type="line"/>
      <point x="38" y="-197"/>
      <point x="45" y="-172"/>
      <point x="45" y="-158" type="curve" smooth="yes"/>
      <point x="45" y="-131"/>
      <point x="26" y="-102"/>
      <point x="-10" y="-102" type="curve" smooth="yes"/>
      <point x="-46" y="-102"/>
      <point x="-67" y="-129"/>
      <point x="-67" y="-160" type="curve" smooth="yes"/>
      <point x="-67" y="-206"/>
      <point x="-29" y="-242"/>
      <point x="43" y="-242" type="curve" smooth="yes"/>
      <point x="88" y="-242"/>
      <point x="206" y="-234"/>
      <point x="206" y="-19" type="curve" smooth="yes"/>
      <point x="206" y="464" type="line"/>
      <point x="327" y="469" type="line"/>
      <point x="327" y="490" type="line"/>
      <point x="206" y="490" type="line"/>
    </contour>
  </outline>
</glyph>
<glyph name="caron" format="1">
  <advance width="320"/>
  <unicode hex="02C7"/>
  <outline>
    <contour>
      <point x="161" y="560" type="line"/>
      <point x="300" y="754" type="line"/>
      <point x="280" y="773" type="line"/>
      <point x="167" y="661" type="line"/>
      <point x="165" y="661" type="line"/>
      <point x="57" y="774" type="line"/>
      <point x="34" y="752" type="line"/>
      <point x="158" y="560" type="line"/>
    </contour>
    <contour>
      <point x="160" y="534" type="move" name="_top"/>
    </contour>
  </outline>
</glyph>
<glyph name="breve" format="1">
  <advance width="324"/>
  <unicode hex="02D8"/>
  <outline>
    <contour>
      <point x="266" y="757" type="line"/>
      <point x="263" y="696"/>
      <point x="217" y="687"/>
      <point x="162" y="687" type="curve" smooth="yes"/>
      <point x="107" y="687"/>
      <point x="61" y="696"/>
      <point x="58" y="757" type="curve"/>
      <point x="52" y="757" type="line"/>
      <point x="37" y="662"/>
      <point x="93" y="617"/>
      <point x="162" y="617" type="curve" smooth="yes"/>
      <point x="231" y="617"/>
      <point x="287" y="662"/>
      <point x="272" y="757" type="curve"/>
    </contour>
    <contour>
      <point x="162" y="490" type="move" name="_top"/>
    </contour>
  </outline>
</glyph>
<glyph name="emdash" format="1">
  <advance width="706"/>
  <unicode hex="2014"/>
  <outline>
    <contour>
      <point x="76" y="343" type="line"/>
      <point x="76" y="289" type="line"/>
      <point x="629" y="289" type="line"/>
      <point x="629" y="343" type="line"/>
    </contour>
  </outline>
</glyph>
<glyph name="quoteleft" format="1">
  <advance width="206"/>
  <unicode hex="2018"/>
  <outline>
    <contour>
      <point x="144" y="707" type="line"/>
      <point x="62" y="662"/>
      <point x="41" y="591"/>
      <point x="41" y="536" type="curve" smooth="yes"/>
      <point x="41" y="492"/>
      <point x="61" y="448"/>
      <point x="105" y="448" type="curve" smooth="yes"/>
      <point x="149" y="448"/>
      <point x="165" y="488"/>
      <point x="165" y="515" type="curve" smooth="yes"/>
      <point x="165" y="555"/>
      <point x="141" y="583"/>
      <point x="109" y="583" type="curve" smooth="yes"/>
      <point x="100" y="583"/>
      <point x="93" y="582"/>
      <point x="82" y="574" type="curve"/>
      <point x="80" y="574" type="line"/>
      <point x="80" y="602"/>
      <point x="94" y="652"/>
      <point x="151" y="682" type="curve"/>
    </contour>
  </outline>
</glyph>
<glyph name="quotedblright" format="1">
  <advance width="365"/>
  <unicode hex="201D"/>
  <outline>
    <contour>
      <point x="66" y="448" type="line"/>
      <point x="148" y="493"/>
      <point x="169" y="563"/>
      <point x="169" y="619" type="curve" smooth="yes"/>
      <point x="169" y="663"/>
      <point x="149" y="707"/>
      <point x="104" y="707" type="curve" smooth="yes"/>
      <point x="61" y="707"/>
      <point x="45" y="667"/>
      <point x="45" y="640" type="curve" smooth="yes"/>
      <point x="45" y="600"/>
      <point x="69" y="572"/>
      <point x="101" y="572" type="curve" smooth="yes"/>
      <point x="110" y="572"/>
      <point x="117" y="573"/>
      <point x="128" y="581" type="curve"/>
      <point x="130" y="581" type="line"/>
      <point x="130" y="553"/>
      <point x="116" y="503"/>
      <point x="59" y="473" type="curve"/>
    </contour>
    <contour>
      <point x="227" y="448" type="line"/>
      <point x="309" y="493"/>
      <point x="330" y="563"/>
      <point x="330" y="619" type="curve" smooth="yes"/>
      <point x="330" y="663"/>
      <point x="311" y="707"/>
      <point x="266" y="707" type="curve" smooth="yes"/>
      <point x="222" y="707"/>
      <point x="206" y="667"/>
      <point x="206" y="640" type="curve" smooth="yes"/>
      <point x="206" y="600"/>
      <point x="230" y="572"/>
      <point x="262" y="572" type="curve" smooth="yes"/>
      <point x="271" y="572"/>
      <point x="278" y="573"/>
      <point x="290" y="581" type="curve"/>
      <point x="292" y="581" type="line"/>
      <point x="292" y="553"/>
      <point x="277" y="503"/>
      <point x="220" y="473" type="curve"/>
    </contour>
  </outline>
</glyph>
<glyph name="quotedblbase" format="1">
  <advance width="376"/>
  <unicode hex="201E"/>
  <outline>
    <contour>
      <point x="67" y="-141" type="line"/>
      <point x="149" y="-96"/>
      <point x="170" y="-26"/>
      <point x="170" y="29" type="curve" smooth="yes"/>
      <point x="170" y="73"/>
      <point x="150" y="117"/>
      <point x="105" y="117" type="curve" smooth="yes"/>
      <point x="62" y="117"/>
      <point x="46" y="77"/>
      <point x="46" y="50" type="curve" smooth="yes"/>
      <point x="46" y="11"/>
      <point x="70" y="-17"/>
      <point x="102" y="-17" type="curve" smooth="yes"/>
      <point x="111" y="-17"/>
      <point x="118" y="-16"/>
      <point x="129" y="-8" type="curve"/>
      <point x="131" y="-8" type="line"/>
      <point x="131" y="-36"/>
      <point x="117" y="-86"/>
      <point x="60" y="-116" type="curve"/>
    </contour>
    <contour>
      <point x="228" y="-141" type="line"/>
      <point x="310" y="-96"/>
      <point x="331" y="-26"/>
      <point x="331" y="29" type="curve" smooth="yes"/>
      <point x="331" y="73"/>
      <point x="312" y="117"/>
      <point x="267" y="117" type="curve" smooth="yes"/>
      <point x="223" y="117"/>
      <point x="207" y="77"/>
      <point x="207" y="50" type="curve" smooth="yes"/>
      <point x="207" y="11"/>
      <point x="231" y="-17"/>
      <point x="263" y="-17" type="curve" smooth="yes"/>
      <point x="272" y="-17"/>
      <point x="279" y="-16"/>
      <point x="291" y="-8" type="curve"/>
      <point x="292" y="-8" type="line"/>
      <point x="292" y="-36"/>
      <point x="278" y="-86"/>
      <point x="221" y="-116" type="curve"/>
    </contour>
  </outline>
</glyph>
<glyph name="daggerdbl" format="1">
  <advance width="494"/>
  <unicode hex="2021"/>
  <outline>
    <contour>
      <point x="209" y="202"/>
      <point x="224" y="139"/>
      <point x="235" y="64" type="curve"/>
      <point x="186" y="64"/>
      <point x="139" y="79"/>
      <point x="90" y="85" type="curve" smooth="yes"/>
      <point x="83" y="86"/>
      <point x="76" y="87"/>
      <point x="68" y="87" type="curve" smooth="yes"/>
      <point x="42" y="87"/>
      <point x="17" y="80"/>
      <point x="17" y="50" type="curve" smooth="yes"/>
      <point x="17" y="21"/>
      <point x="41" y="14"/>
      <point x="67" y="14" type="curve" smooth="yes"/>
      <point x="75" y="14"/>
      <point x="83" y="15"/>
      <point x="90" y="16" type="curve" smooth="yes"/>
      <point x="139" y="22"/>
      <point x="186" y="37"/>
      <point x="235" y="38" type="curve"/>
      <point x="226" y="-99"/>
      <point x="201" y="-126"/>
      <point x="201" y="-178" type="curve" smooth="yes"/>
      <point x="201" y="-208"/>
      <point x="212" y="-242"/>
      <point x="245" y="-242" type="curve" smooth="yes"/>
      <point x="280" y="-242"/>
      <point x="292" y="-207"/>
      <point x="292" y="-177" type="curve" smooth="yes"/>
      <point x="292" y="-126"/>
      <point x="268" y="-95"/>
      <point x="259" y="38" type="curve"/>
      <point x="308" y="37"/>
      <point x="355" y="22"/>
      <point x="404" y="16" type="curve" smooth="yes"/>
      <point x="411" y="15"/>
      <point x="419" y="14"/>
      <point x="426" y="14" type="curve" smooth="yes"/>
      <point x="453" y="14"/>
      <point x="477" y="21"/>
      <point x="477" y="50" type="curve" smooth="yes"/>
      <point x="477" y="80"/>
      <point x="452" y="87"/>
      <point x="426" y="87" type="curve" smooth="yes"/>
      <point x="418" y="87"/>
      <point x="411" y="86"/>
      <point x="404" y="85" type="curve" smooth="yes"/>
      <point x="355" y="79"/>
      <point x="308" y="64"/>
      <point x="259" y="63" type="curve"/>
      <point x="270" y="138"/>
      <point x="285" y="202"/>
      <point x="300" y="239" type="curve"/>
      <point x="285" y="276"/>
      <point x="270" y="333"/>
      <point x="259" y="408" type="curve"/>
      <point x="308" y="408"/>
      <point x="355" y="393"/>
      <point x="404" y="387" type="curve" smooth="yes"/>
      <point x="411" y="386"/>
      <point x="418" y="385"/>
      <point x="426" y="385" type="curve" smooth="yes"/>
      <point x="452" y="385"/>
      <point x="477" y="393"/>
      <point x="477" y="422" type="curve" smooth="yes"/>
      <point x="477" y="451"/>
      <point x="453" y="458"/>
      <point x="426" y="458" type="curve" smooth="yes"/>
      <point x="418" y="458"/>
      <point x="411" y="458"/>
      <point x="404" y="457" type="curve" smooth="yes"/>
      <point x="355" y="450"/>
      <point x="308" y="435"/>
      <point x="258" y="435" type="curve"/>
      <point x="268" y="571"/>
      <point x="292" y="599"/>
      <point x="292" y="650" type="curve" smooth="yes"/>
      <point x="292" y="680"/>
      <point x="282" y="714"/>
      <point x="249" y="714" type="curve" smooth="yes"/>
      <point x="214" y="714"/>
      <point x="201" y="679"/>
      <point x="201" y="649" type="curve" smooth="yes"/>
      <point x="201" y="599"/>
      <point x="226" y="567"/>
      <point x="235" y="435" type="curve"/>
      <point x="186" y="435"/>
      <point x="139" y="450"/>
      <point x="90" y="457" type="curve" smooth="yes"/>
      <point x="83" y="458"/>
      <point x="75" y="458"/>
      <point x="67" y="458" type="curve" smooth="yes"/>
      <point x="41" y="458"/>
      <point x="17" y="451"/>
      <point x="17" y="422" type="curve" smooth="yes"/>
      <point x="17" y="393"/>
      <point x="42" y="385"/>
      <point x="68" y="385" type="curve" smooth="yes"/>
      <point x="75" y="385"/>
      <point x="83" y="386"/>
      <point x="90" y="387" type="curve" smooth="yes"/>
      <point x="139" y="393"/>
      <point x="186" y="408"/>
      <point x="234" y="409" type="curve"/>
      <point x="224" y="334"/>
      <point x="209" y="276"/>
      <point x="194" y="239" type="curve"/>
    </contour>
  </outline>
</glyph>
<glyph name="bullet" format="1">
  <advance width="299"/>
  <unicode hex="2022"/>
  <outline>
    <contour>
      <point x="43" y="279"/>
      <point x="88" y="232"/>
      <point x="150" y="232" type="curve" smooth="yes"/>
      <point x="215" y="232"/>
      <point x="256" y="279"/>
      <point x="256" y="341" type="curve" smooth="yes"/>
      <point x="256" y="406"/>
      <point x="215" y="454"/>
      <point x="150" y="454" type="curve" smooth="yes"/>
      <point x="88" y="454"/>
      <point x="43" y="406"/>
      <point x="43" y="341" type="curve" smooth="yes"/>
    </contour>
  </outline>
</glyph>
<glyph name="fraction" format="1">
  <advance width="367"/>
  <unicode hex="2044"/>
  <outline>
    <contour>
      <point x="9" y="0" type="line"/>
      <point x="390" y="714" type="line"/>
      <point x="359" y="714" type="line"/>
      <point x="-21" y="0" type="line"/>
    </contour>
  </outline>
</glyph>
<glyph name="uni2074" format="1">
  <advance width="346"/>
  <unicode hex="2074"/>
  <outline>
    <contour>
      <point x="21" y="420" type="line"/>
      <point x="160" y="420" type="line"/>
      <point x="160" y="372" type="line"/>
      <point x="110" y="367" type="line"/>
      <point x="110" y="347" type="line"/>
      <point x="301" y="347" type="line"/>
      <point x="301" y="367" type="line"/>
      <point x="250" y="372" type="line"/>
      <point x="250" y="420" type="line"/>
      <point x="301" y="420" type="line"/>
      <point x="301" y="447" type="line"/>
      <point x="250" y="446" type="line"/>
      <point x="250" y="715" type="line"/>
      <point x="208" y="715" type="line"/>
      <point x="21" y="444" type="line"/>
    </contour>
    <contour>
      <point x="160" y="604" type="line"/>
      <point x="160" y="444" type="line"/>
      <point x="46" y="444" type="line"/>
      <point x="46" y="445" type="line"/>
      <point x="159" y="604" type="line"/>
    </contour>
  </outline>
</glyph>
<glyph name="Euro" format="1">
  <advance width="650"/>
  <unicode hex="20AC"/>
  <outline>
    <contour>
      <point x="607" y="566" type="line"/>
      <point x="572" y="665"/>
      <point x="492" y="714"/>
      <point x="395" y="714" type="curve" smooth="yes"/>
      <point x="220" y="714"/>
      <point x="133" y="594"/>
      <point x="100" y="458" type="curve"/>
      <point x="32" y="458" type="line"/>
      <point x="16" y="404" type="line"/>
      <point x="90" y="404" type="line"/>
      <point x="87" y="381"/>
      <point x="86" y="358"/>
      <point x="86" y="336" type="curve" smooth="yes"/>
      <point x="86" y="321" type="line"/>
      <point x="32" y="321" type="line"/>
      <point x="16" y="268" type="line"/>
      <point x="89" y="268" type="line"/>
      <point x="107" y="103"/>
      <point x="194" y="-17"/>
      <point x="396" y="-17" type="curve" smooth="yes"/>
      <point x="514" y="-17"/>
      <point x="588" y="47"/>
      <point x="632" y="155" type="curve"/>
      <point x="609" y="166" type="line"/>
      <point x="575" y="87"/>
      <point x="507" y="19"/>
      <point x="409" y="19" type="curve" smooth="yes"/>
      <point x="294" y="19"/>
      <point x="238" y="140"/>
      <point x="221" y="268" type="curve"/>
      <point x="425" y="268" type="line"/>
      <point x="441" y="321" type="line"/>
      <point x="216" y="321" type="line"/>
      <point x="216" y="331"/>
      <point x="216" y="340"/>
      <point x="216" y="350" type="curve" smooth="yes"/>
      <point x="216" y="369"/>
      <point x="216" y="387"/>
      <point x="218" y="404" type="curve"/>
      <point x="463" y="404" type="line"/>
      <point x="479" y="458" type="line"/>
      <point x="225" y="458" type="line"/>
      <point x="249" y="589"/>
      <point x="311" y="683"/>
      <point x="404" y="683" type="curve" smooth="yes"/>
      <point x="483" y="683"/>
      <point x="542" y="649"/>
      <point x="583" y="557" type="curve"/>
    </contour>
  </outline>
</glyph>
<glyph name="minus" format="1">
  <advance width="560"/>
  <unicode hex="2212"/>
  <outline>
    <contour>
      <point x="57" y="343" type="line"/>
      <point x="57" y="289" type="line"/>
      <point x="502" y="289" type="line"/>
      <point x="502" y="343" type="line"/>
    </contour>
  </outline>
</glyph>
<glyph name="fl" format="1">
  <advance width="617"/>
  <unicode hex="FB02"/>
  <outline>
    <contour>
      <point x="417" y="25" type="line"/>
      <point x="367" y="20" type="line"/>
      <point x="367" y="0" type="line"/>
      <point x="587" y="0" type="line"/>
      <point x="587" y="20" type="line"/>
      <point x="537" y="25" type="line"/>
      <point x="537" y="693" type="line"/>
      <point x="528" y="707" type="line"/>
      <point x="459" y="689" type="line"/>
      <point x="405" y="678" type="line"/>
      <point x="370" y="690"/>
      <point x="318" y="707"/>
      <point x="267" y="707" type="curve" smooth="yes"/>
      <point x="206" y="707"/>
      <point x="93" y="703"/>
      <point x="89" y="490" type="curve"/>
      <point x="18" y="490" type="line"/>
      <point x="18" y="469" type="line"/>
      <point x="89" y="466" type="line"/>
      <point x="89" y="25" type="line"/>
      <point x="40" y="20" type="line"/>
      <point x="40" y="0" type="line"/>
      <point x="279" y="0" type="line"/>
      <point x="279" y="20" type="line"/>
      <point x="209" y="25" type="line"/>
      <point x="209" y="464" type="line"/>
      <point x="327" y="469" type="line"/>
      <point x="327" y="490" type="line"/>
      <point x="209" y="490" type="line"/>
      <point x="209" y="577" type="line" smooth="yes"/>
      <point x="209" y="633"/>
      <point x="229" y="680"/>
      <point x="286" y="680" type="curve" smooth="yes"/>
      <point x="369" y="680"/>
      <point x="417" y="647"/>
      <point x="417" y="541" type="curve" smooth="yes"/>
    </contour>
  </outline>
</glyph>
<glyph name="acute.case" format="1">
  <advance width="264"/>
  <outline>
    <contour>
      <point x="191" y="810" type="line" smooth="yes"/>
      <point x="213" y="815"/>
      <point x="235" y="834"/>
      <point x="235" y="857" type="curve" smooth="yes"/>
      <point x="235" y="887"/>
      <point x="212" y="900"/>
      <point x="193" y="900" type="curve" smooth="yes"/>
      <point x="180" y="900"/>
      <point x="164" y="890"/>
      <point x="155" y="883" type="curve"/>
      <point x="37" y="790" type="line"/>
      <point x="44" y="771" type="line"/>
    </contour>
    <contour>
      <point x="117" y="697" type="move" name="_top"/>
    </contour>
  </outline>
</glyph>
<glyph name="cedilla.case" format="1">
  <advance width="275"/>
  <outline>
    <contour>
      <point x="146" y="-66"/>
      <point x="113" y="-73"/>
      <point x="93" y="-83" type="curve"/>
      <point x="123" y="8" type="line"/>
      <point x="89" y="8" type="line"/>
      <point x="61" y="-106" type="line"/>
      <point x="77" y="-120" type="line"/>
      <point x="90" y="-111"/>
      <point x="107" y="-105"/>
      <point x="123" y="-105" type="curve" smooth="yes"/>
      <point x="144" y="-105"/>
      <point x="154" y="-120"/>
      <point x="154" y="-141" type="curve" smooth="yes"/>
      <point x="154" y="-180"/>
      <point x="115" y="-238"/>
      <point x="41" y="-249" type="curve"/>
      <point x="44" y="-273" type="line"/>
      <point x="113" y="-264"/>
      <point x="240" y="-213"/>
      <point x="240" y="-132" type="curve" smooth="yes"/>
      <point x="240" y="-91"/>
      <point x="210" y="-66"/>
      <point x="169" y="-66" type="curve" smooth="yes"/>
    </contour>
    <contour>
      <point x="104" y="0" type="move" name="_bottom"/>
    </contour>
  </outline>
</glyph>
<glyph name="dieresis.case" format="1">
  <advance width="383"/>
  <outline>
    <contour>
      <point x="39" y="818"/>
      <point x="62" y="789"/>
      <point x="99" y="789" type="curve" smooth="yes"/>
      <point x="135" y="789"/>
      <point x="159" y="818"/>
      <point x="159" y="855" type="curve" smooth="yes"/>
      <point x="159" y="891"/>
      <point x="135" y="920"/>
      <point x="99" y="920" type="curve" smooth="yes"/>
      <point x="62" y="920"/>
      <point x="39" y="891"/>
      <point x="39" y="855" type="curve" smooth="yes"/>
    </contour>
    <contour>
      <point x="215" y="818"/>
      <point x="238" y="789"/>
      <point x="274" y="789" type="curve" smooth="yes"/>
      <point x="311" y="789"/>
      <point x="334" y="818"/>
      <point x="334" y="855" type="curve" smooth="yes"/>
      <point x="334" y="891"/>
      <point x="311" y="920"/>
      <point x="274" y="920" type="curve" smooth="yes"/>
      <point x="238" y="920"/>
      <point x="215" y="891"/>
      <point x="215" y="855" type="curve" smooth="yes"/>
    </contour>
    <contour>
      <point x="188" y="744" type="move" name="_top"/>
    </contour>
  </outline>
</glyph>
<glyph name="ring.case" format="1">
  <advance width="320"/>
  <outline>
    <contour>
      <point x="39" y="793"/>
      <point x="81" y="765"/>
      <point x="159" y="765" type="curve" smooth="yes"/>
      <point x="237" y="765"/>
      <point x="281" y="793"/>
      <point x="281" y="852" type="curve" smooth="yes"/>
      <point x="281" y="910"/>
      <point x="237" y="941"/>
      <point x="159" y="941" type="curve" smooth="yes"/>
      <point x="86" y="941"/>
      <point x="39" y="910"/>
      <point x="39" y="852" type="curve" smooth="yes"/>
    </contour>
    <contour>
      <point x="107" y="892"/>
      <point x="124" y="914"/>
      <point x="159" y="914" type="curve" smooth="yes"/>
      <point x="196" y="914"/>
      <point x="213" y="892"/>
      <point x="213" y="852" type="curve" smooth="yes"/>
      <point x="213" y="813"/>
      <point x="196" y="792"/>
      <point x="159" y="792" type="curve" smooth="yes"/>
      <point x="124" y="792"/>
      <point x="107" y="813"/>
      <point x="107" y="852" type="curve" smooth="yes"/>
    </contour>
    <contour>
      <point x="159" y="723" type="move" name="_top"/>
    </contour>
  </outline>
</glyph>
<glyph name="tilde.case" format="1">
  <advance width="414"/>
  <outline>
    <contour>
      <point x="187" y="847"/>
      <point x="200" y="802"/>
      <point x="259" y="802" type="curve" smooth="yes"/>
      <point x="304" y="802"/>
      <point x="346" y="836"/>
      <point x="360" y="910" type="curve"/>
      <point x="341" y="917" type="line"/>
      <point x="314" y="876"/>
      <point x="284" y="872"/>
      <point x="265" y="872" type="curve" smooth="yes"/>
      <point x="217" y="872"/>
      <point x="209" y="913"/>
      <point x="150" y="913" type="curve" smooth="yes"/>
      <point x="93" y="913"/>
      <point x="57" y="862"/>
      <point x="44" y="815" type="curve"/>
      <point x="62" y="808" type="line"/>
      <point x="88" y="840"/>
      <point x="117" y="847"/>
      <point x="141" y="847" type="curve" smooth="yes"/>
    </contour>
    <contour>
      <point x="201" y="744" type="move" name="_top"/>
    </contour>
  </outline>
</glyph>
